<svg width="24" height="24" viewBox="0 0 24 24" fill="none" xmlns="http://www.w3.org/2000/svg">
<path d="M14.1099 15.11C13.8899 14.89 13.9199 14.52 14.1899 14.35C15.5099 13.49 16.2999 11.86 15.8999 10.09C15.5799 8.62995 14.3999 7.43995 12.9499 7.10995C10.3299 6.50995 7.99995 8.47995 7.99995 11C7.99995 12.4 8.71995 13.63 9.81995 14.34C10.0799 14.51 10.1199 14.88 9.89995 15.1L9.24995 15.75C7.60995 14.8 6.50995 13.03 6.50995 10.99C6.50995 9.66995 6.97995 8.45995 7.74995 7.51995C7.91995 7.31995 7.91995 7.01995 7.72995 6.83995L5.24995 4.35995C5.04995 4.15995 4.70995 4.15995 4.51995 4.36995C2.61995 6.51995 1.61995 9.48995 2.14995 12.69C2.82995 16.83 6.15995 20.16 10.2999 20.85C12.9899 21.3 15.4999 20.67 17.5199 19.33C17.7799 19.16 17.8099 18.78 17.5899 18.56L14.1299 15.1L14.1099 15.11Z" fill="#EB001A"/>
<path d="M16.2802 6.83996C16.0902 7.02996 16.0902 7.31996 16.2602 7.51996C17.0302 8.46996 17.5002 9.67996 17.5002 10.99C17.5002 12.48 16.9102 13.83 15.9502 14.82L18.7602 17.63C18.9602 17.83 19.3002 17.83 19.4902 17.62C21.0502 15.86 22.0002 13.54 22.0002 11C22.0002 8.45996 21.0502 6.13996 19.4902 4.37996C19.3002 4.16996 18.9602 4.16996 18.7602 4.36996L16.2802 6.84996V6.83996Z" fill="#F47F8C"/>
</svg>
