<svg width="24" height="24" viewBox="0 0 24 24" fill="none" xmlns="http://www.w3.org/2000/svg">
<path d="M20.9998 16.9101V7.09012C20.9998 6.91012 20.8998 6.75012 20.7498 6.66012L12.2498 1.75012C12.0998 1.66012 11.8998 1.66012 11.7498 1.75012L7.06982 4.45012L8.06982 6.18012L8.93982 5.68012C10.3698 4.85012 12.2098 5.35012 13.0398 6.78012C13.8698 8.21012 13.3698 10.0501 11.9398 10.8801L11.0698 11.3801L12.0698 13.1101L12.9398 12.6101C14.3698 11.7801 16.2098 12.2801 17.0398 13.7101C17.8698 15.1401 17.3698 16.9801 15.9398 17.8101L15.0698 18.3101L16.0698 20.0401L20.7498 17.3401C20.8998 17.2501 20.9998 17.0901 20.9998 16.9101Z" fill="#F47F8C"/>
<path d="M13.6802 13.92L11.5102 15.17L9.01023 10.84L11.1802 9.58996C11.9002 9.17996 12.1402 8.25996 11.7302 7.53996C11.3202 6.81996 10.4002 6.57996 9.68023 6.98996L7.51023 8.23996L5.76023 5.20996L3.24023 6.65996C3.09023 6.74996 2.99023 6.90996 2.99023 7.08996V16.9C2.99023 17.08 3.09023 17.24 3.24023 17.33L11.7402 22.24C11.8902 22.33 12.0902 22.33 12.2402 22.24L14.7602 20.79L13.0102 17.76L15.1802 16.51C15.9002 16.1 16.1402 15.18 15.7302 14.46C15.3202 13.74 14.4002 13.5 13.6802 13.91V13.92Z" fill="#EB001A"/>
</svg>
