<svg width="24" height="24" viewBox="0 0 24 24" fill="none" xmlns="http://www.w3.org/2000/svg">
<path d="M10.4998 10.8299L15.6198 7.8699V2.0099C15.6198 1.7799 15.3698 1.6299 15.1698 1.7499L8.41984 5.6499C8.32984 5.6999 8.26984 5.7999 8.26984 5.9099V9.5399L3.03984 6.5199C2.83984 6.3999 2.58984 6.5499 2.58984 6.7799V16.6799C2.58984 16.7899 2.64984 16.8899 2.73984 16.9399L10.4998 21.4199V10.8299Z" fill="#EB001A"/>
<path d="M12 22.2899L21.26 16.9399C21.35 16.8899 21.41 16.7899 21.41 16.6799V6.77992C21.41 6.54992 21.16 6.39992 20.96 6.51992L12 11.6999V22.2999V22.2899Z" fill="#F47F8C"/>
</svg>
