<svg width="24" height="24" viewBox="0 0 24 24" fill="none" xmlns="http://www.w3.org/2000/svg">
<path d="M20.85 14.8999L21.73 4.28994C21.73 4.17994 21.66 4.07994 21.55 4.06994L10.99 3.14994C10.86 3.13994 10.73 3.17994 10.63 3.26994L2.68998 9.91994C2.55998 10.0299 2.61998 10.2399 2.77998 10.2699L6.84998 10.9899C7.33998 8.33994 9.72998 6.34994 12.56 6.49994C15.39 6.64994 17.7 9.05994 17.75 11.8799C17.81 14.9299 15.38 17.4299 12.35 17.4799V21.7299C12.35 21.8999 12.55 21.9899 12.68 21.8799L20.66 15.2199C20.76 15.1299 20.83 15.0099 20.84 14.8799L20.85 14.8999Z" fill="#EB001A"/>
<path d="M12.2598 16C14.4689 16 16.2598 14.2091 16.2598 12C16.2598 9.79086 14.4689 8 12.2598 8C10.0506 8 8.25977 9.79086 8.25977 12C8.25977 14.2091 10.0506 16 12.2598 16Z" fill="#F47F8C"/>
</svg>
