<svg width="24" height="24" viewBox="0 0 24 24" fill="none" xmlns="http://www.w3.org/2000/svg">
<g clip-path="url(#clip0_7050_698)">
<path d="M19.7368 14.7933C19.4636 15.203 19.0539 15.5445 18.5076 15.8176C18.0296 16.0908 17.415 16.2274 16.7321 16.2274C16.1857 16.2274 15.6394 16.0908 15.1614 15.8859C14.6834 15.6811 14.2736 15.4079 13.9322 14.9982C13.5907 14.6567 13.3176 14.1787 13.1127 13.6324C12.9078 13.0861 12.8396 12.5397 12.8396 11.9251C12.8396 11.3105 12.9078 10.7642 13.1127 10.2179C13.3176 9.67158 13.5907 9.26184 13.9322 8.85211C14.2736 8.44237 14.6834 8.16921 15.2297 7.96435C15.7077 7.75948 16.254 7.6229 16.8686 7.6229C17.4149 7.6229 17.9613 7.75948 18.4393 7.96435C18.9173 8.16921 19.3271 8.51066 19.6685 8.9204L21.9221 6.66685C21.3075 5.98395 20.5563 5.50593 19.6002 5.16448C18.6442 4.82303 17.6881 4.61816 16.7321 4.61816C15.6394 4.61816 14.6834 4.75474 13.7956 5.09619C12.9078 5.43764 12.0884 5.91566 11.4055 6.53027C10.7226 7.14487 10.1763 7.96435 9.83482 8.85211C9.76653 8.9204 9.76653 9.05698 9.69824 9.12527L11.7469 11.8568L9.69824 14.5884C9.69824 14.6567 9.76653 14.725 9.76653 14.7933C10.1763 15.6811 10.6543 16.5005 11.3372 17.1151C12.0201 17.7297 12.7713 18.2761 13.7273 18.6175C14.6151 18.959 15.6394 19.1638 16.732 19.1638C17.893 19.1638 18.9173 18.959 19.8734 18.5492C20.8294 18.1395 21.5123 17.5932 22.1269 16.842L19.7368 14.7933Z" fill="#EB001A"/>
<path d="M5.46421 5.02783H1.02539L6.28368 11.9934L1.02539 18.9589H5.46421L10.6542 11.9934L5.46421 5.02783Z" fill="#F47F8C"/>
</g>
<defs>
<clipPath id="clip0_7050_698">
<rect width="22" height="16" fill="white" transform="translate(1 4)"/>
</clipPath>
</defs>
</svg>
