<svg width="67" height="24" viewBox="0 0 67 24" fill="none" xmlns="http://www.w3.org/2000/svg">
<path d="M14.1099 15.11C13.8899 14.89 13.9199 14.52 14.1899 14.35C15.5099 13.49 16.2999 11.86 15.8999 10.09C15.5799 8.63002 14.3999 7.44002 12.9499 7.11002C10.3299 6.51002 7.99995 8.48002 7.99995 11C7.99995 12.4 8.71995 13.63 9.81995 14.34C10.0799 14.51 10.1199 14.88 9.89995 15.1L9.24995 15.75C7.60995 14.8 6.50995 13.03 6.50995 10.99C6.50995 9.67002 6.97995 8.46002 7.74995 7.52002C7.91995 7.32002 7.91995 7.02002 7.72995 6.84002L5.24995 4.36002C5.04995 4.16002 4.70995 4.16002 4.51995 4.37002C2.61995 6.52002 1.61995 9.49001 2.14995 12.69C2.82995 16.83 6.15995 20.16 10.2999 20.85C12.9899 21.3 15.4999 20.67 17.5199 19.33C17.7799 19.16 17.8099 18.78 17.5899 18.56L14.1299 15.1L14.1099 15.11Z" fill="#EB1F1F"/>
<path d="M16.28 6.84003C16.09 7.03003 16.09 7.32003 16.26 7.52003C17.03 8.47003 17.5 9.68003 17.5 10.99C17.5 12.48 16.91 13.83 15.95 14.82L18.76 17.63C18.96 17.83 19.3 17.83 19.49 17.62C21.05 15.86 22 13.54 22 11C22 8.46003 21.05 6.14003 19.49 4.38003C19.3 4.17003 18.96 4.17003 18.76 4.37003L16.28 6.85003V6.84003Z" fill="#F58F8F"/>
<path d="M39.013 8.786C38.6957 8.35533 38.282 8.04367 37.772 7.851C37.262 7.647 36.7633 7.545 36.276 7.545C35.6527 7.545 35.086 7.65833 34.576 7.885C34.066 8.11167 33.624 8.42333 33.25 8.82C32.8873 9.21667 32.604 9.68133 32.4 10.214C32.2073 10.7467 32.111 11.3247 32.111 11.948C32.111 12.6053 32.2073 13.206 32.4 13.75C32.5927 14.294 32.8647 14.7643 33.216 15.161C33.5787 15.5463 34.0093 15.8467 34.508 16.062C35.0067 16.2773 35.5677 16.385 36.191 16.385C36.837 16.385 37.4093 16.2603 37.908 16.011C38.4067 15.7503 38.809 15.4103 39.115 14.991L40.832 16.198C40.2993 16.8667 39.6477 17.388 38.877 17.762C38.1063 18.1247 37.2053 18.306 36.174 18.306C35.2333 18.306 34.3663 18.153 33.573 17.847C32.791 17.5297 32.1167 17.0933 31.55 16.538C30.9833 15.9713 30.5413 15.3027 30.224 14.532C29.9067 13.75 29.748 12.8887 29.748 11.948C29.748 10.9847 29.9123 10.1177 30.241 9.347C30.581 8.565 31.04 7.902 31.618 7.358C32.2073 6.814 32.8987 6.39467 33.692 6.1C34.4853 5.80533 35.3467 5.658 36.276 5.658C36.6613 5.658 37.0637 5.69767 37.483 5.777C37.9023 5.845 38.3047 5.95833 38.69 6.117C39.0753 6.26433 39.438 6.45133 39.778 6.678C40.118 6.90467 40.407 7.17667 40.645 7.494L39.013 8.786ZM42.1629 5.964H46.4299C47.2119 5.964 47.9996 6.066 48.7929 6.27C49.5862 6.474 50.3002 6.814 50.9349 7.29C51.5696 7.75467 52.0852 8.37233 52.4819 9.143C52.8786 9.90233 53.0769 10.8487 53.0769 11.982C53.0769 13.036 52.8786 13.9427 52.4819 14.702C52.0852 15.4613 51.5696 16.0847 50.9349 16.572C50.3002 17.0593 49.5862 17.422 48.7929 17.66C47.9996 17.8867 47.2119 18 46.4299 18H42.1629V5.964ZM46.0899 16.13C46.6452 16.13 47.2006 16.0677 47.7559 15.943C48.3112 15.807 48.8099 15.586 49.2519 15.28C49.7052 14.9627 50.0736 14.5377 50.3569 14.005C50.6402 13.4723 50.7819 12.798 50.7819 11.982C50.7819 11.1207 50.6402 10.418 50.3569 9.874C50.0736 9.33 49.7052 8.905 49.2519 8.599C48.8099 8.293 48.3112 8.08333 47.7559 7.97C47.2006 7.85667 46.6452 7.8 46.0899 7.8H44.3049V16.13H46.0899ZM55.1453 5.964H59.0723C59.7637 5.964 60.387 6.02633 60.9423 6.151C61.4977 6.27567 61.9737 6.47967 62.3703 6.763C62.767 7.04633 63.073 7.409 63.2883 7.851C63.5037 8.293 63.6113 8.82567 63.6113 9.449C63.6113 10.1177 63.4867 10.6787 63.2373 11.132C62.988 11.5853 62.648 11.9537 62.2173 12.237C61.798 12.509 61.305 12.7073 60.7383 12.832C60.1717 12.9567 59.571 13.019 58.9363 13.019H57.2873V18H55.1453V5.964ZM58.7833 11.217C59.1347 11.217 59.469 11.1943 59.7863 11.149C60.1037 11.0923 60.387 11.0017 60.6363 10.877C60.8857 10.741 61.084 10.5597 61.2313 10.333C61.3787 10.1063 61.4523 9.81167 61.4523 9.449C61.4523 9.09767 61.3787 8.81433 61.2313 8.599C61.084 8.37233 60.8857 8.19667 60.6363 8.072C60.3983 7.94733 60.1207 7.868 59.8033 7.834C59.4973 7.78867 59.18 7.766 58.8513 7.766H57.2873V11.217H58.7833Z" fill="black"/>
</svg>
