<?xml version="1.0" encoding="utf-8"?>
<!-- Generator: Adobe Illustrator 27.0.1, SVG Export Plug-In . SVG Version: 6.00 Build 0)  -->
<svg version="1.1" id="Layer_1" xmlns="http://www.w3.org/2000/svg" xmlns:xlink="http://www.w3.org/1999/xlink" x="0px" y="0px"
	 viewBox="0 0 98 24" style="enable-background:new 0 0 98 24;" xml:space="preserve">
<style type="text/css">
	.st0{fill:#F58F8F;}
	.st1{fill:#EB1F1F;}
</style>
<path d="M39.513,8.786c-0.317-0.431-0.731-0.742-1.241-0.935c-0.51-0.204-1.009-0.306-1.496-0.306c-0.623,0-1.19,0.113-1.7,0.34
	c-0.51,0.227-0.952,0.538-1.326,0.935c-0.363,0.397-0.646,0.861-0.85,1.394c-0.193,0.533-0.289,1.111-0.289,1.734
	c0,0.657,0.096,1.258,0.289,1.802c0.193,0.544,0.465,1.014,0.816,1.411c0.363,0.385,0.793,0.686,1.292,0.901
	c0.499,0.215,1.06,0.323,1.683,0.323c0.646,0,1.218-0.125,1.717-0.374c0.499-0.261,0.901-0.601,1.207-1.02l1.717,1.207
	c-0.533,0.669-1.184,1.19-1.955,1.564c-0.771,0.363-1.672,0.544-2.703,0.544c-0.941,0-1.808-0.153-2.601-0.459
	c-0.782-0.317-1.456-0.754-2.023-1.309c-0.567-0.567-1.009-1.235-1.326-2.006c-0.317-0.782-0.476-1.643-0.476-2.584
	c0-0.963,0.164-1.83,0.493-2.601c0.34-0.782,0.799-1.445,1.377-1.989c0.589-0.544,1.281-0.963,2.074-1.258
	c0.793-0.295,1.655-0.442,2.584-0.442c0.385,0,0.788,0.04,1.207,0.119c0.419,0.068,0.822,0.181,1.207,0.34
	c0.385,0.147,0.748,0.334,1.088,0.561s0.629,0.499,0.867,0.816L39.513,8.786z M41.886,13.886c0-0.646,0.113-1.23,0.34-1.751
	c0.238-0.533,0.555-0.986,0.952-1.36c0.397-0.374,0.867-0.663,1.411-0.867c0.544-0.204,1.122-0.306,1.734-0.306
	s1.19,0.102,1.734,0.306c0.544,0.204,1.014,0.493,1.411,0.867c0.397,0.374,0.708,0.827,0.935,1.36
	c0.238,0.521,0.357,1.105,0.357,1.751s-0.119,1.235-0.357,1.768c-0.227,0.533-0.538,0.992-0.935,1.377
	c-0.397,0.374-0.867,0.669-1.411,0.884c-0.544,0.215-1.122,0.323-1.734,0.323s-1.19-0.108-1.734-0.323
	c-0.544-0.215-1.014-0.51-1.411-0.884c-0.397-0.385-0.714-0.844-0.952-1.377C41.999,15.121,41.886,14.532,41.886,13.886z
	 M43.96,13.886c0,0.317,0.045,0.635,0.136,0.952c0.102,0.317,0.249,0.601,0.442,0.85s0.436,0.453,0.731,0.612
	c0.295,0.159,0.646,0.238,1.054,0.238s0.759-0.079,1.054-0.238c0.295-0.159,0.538-0.363,0.731-0.612s0.334-0.533,0.425-0.85
	c0.102-0.317,0.153-0.635,0.153-0.952c0-0.317-0.051-0.629-0.153-0.935c-0.091-0.317-0.232-0.601-0.425-0.85
	s-0.436-0.448-0.731-0.595c-0.295-0.159-0.646-0.238-1.054-0.238s-0.759,0.079-1.054,0.238c-0.295,0.147-0.538,0.346-0.731,0.595
	s-0.34,0.533-0.442,0.85C44.005,13.257,43.96,13.569,43.96,13.886z M52.738,9.84h1.938v1.309h0.034
	c0.181-0.408,0.493-0.765,0.935-1.071c0.453-0.317,0.986-0.476,1.598-0.476c0.533,0,0.986,0.096,1.36,0.289
	c0.385,0.181,0.697,0.425,0.935,0.731c0.249,0.306,0.431,0.657,0.544,1.054c0.113,0.397,0.17,0.805,0.17,1.224V18h-2.04v-4.522
	c0-0.238-0.017-0.487-0.051-0.748c-0.034-0.261-0.108-0.493-0.221-0.697c-0.113-0.215-0.272-0.391-0.476-0.527
	c-0.193-0.136-0.453-0.204-0.782-0.204c-0.329,0-0.612,0.068-0.85,0.204c-0.238,0.125-0.436,0.289-0.595,0.493
	c-0.147,0.204-0.261,0.442-0.34,0.714c-0.079,0.261-0.119,0.527-0.119,0.799V18h-2.04V9.84z M62.632,9.84h1.938v1.309h0.034
	c0.181-0.408,0.493-0.765,0.935-1.071c0.453-0.317,0.986-0.476,1.598-0.476c0.533,0,0.986,0.096,1.36,0.289
	c0.385,0.181,0.697,0.425,0.935,0.731c0.249,0.306,0.431,0.657,0.544,1.054c0.113,0.397,0.17,0.805,0.17,1.224V18h-2.04v-4.522
	c0-0.238-0.017-0.487-0.051-0.748c-0.034-0.261-0.108-0.493-0.221-0.697c-0.113-0.215-0.272-0.391-0.476-0.527
	c-0.193-0.136-0.453-0.204-0.782-0.204c-0.329,0-0.612,0.068-0.85,0.204c-0.238,0.125-0.436,0.289-0.595,0.493
	c-0.147,0.204-0.261,0.442-0.34,0.714c-0.079,0.261-0.119,0.527-0.119,0.799V18h-2.04V9.84z M78.273,13.104
	c0-0.261-0.04-0.51-0.119-0.748c-0.068-0.238-0.181-0.448-0.34-0.629c-0.159-0.181-0.363-0.323-0.612-0.425
	c-0.238-0.113-0.521-0.17-0.85-0.17c-0.612,0-1.133,0.187-1.564,0.561c-0.419,0.363-0.652,0.833-0.697,1.411H78.273z M80.313,14.022
	c0,0.091,0,0.181,0,0.272c0,0.091-0.006,0.181-0.017,0.272h-6.205c0.023,0.295,0.096,0.567,0.221,0.816
	c0.136,0.238,0.312,0.448,0.527,0.629c0.215,0.17,0.459,0.306,0.731,0.408c0.272,0.102,0.555,0.153,0.85,0.153
	c0.51,0,0.941-0.091,1.292-0.272c0.351-0.193,0.64-0.453,0.867-0.782l1.36,1.088c-0.805,1.088-1.972,1.632-3.502,1.632
	c-0.635,0-1.218-0.096-1.751-0.289c-0.533-0.204-0.997-0.487-1.394-0.85c-0.385-0.363-0.691-0.805-0.918-1.326
	c-0.215-0.533-0.323-1.133-0.323-1.802c0-0.657,0.108-1.252,0.323-1.785c0.227-0.544,0.533-1.003,0.918-1.377
	c0.385-0.385,0.839-0.68,1.36-0.884c0.533-0.215,1.105-0.323,1.717-0.323c0.567,0,1.088,0.096,1.564,0.289
	c0.487,0.181,0.907,0.459,1.258,0.833c0.351,0.363,0.623,0.822,0.816,1.377C80.211,12.645,80.313,13.285,80.313,14.022z
	 M87.865,12.101c-0.159-0.227-0.397-0.414-0.714-0.561c-0.317-0.159-0.64-0.238-0.969-0.238c-0.374,0-0.703,0.079-0.986,0.238
	c-0.283,0.147-0.521,0.346-0.714,0.595c-0.181,0.249-0.317,0.533-0.408,0.85c-0.091,0.306-0.136,0.618-0.136,0.935
	s0.045,0.635,0.136,0.952c0.102,0.306,0.249,0.584,0.442,0.833c0.193,0.249,0.431,0.453,0.714,0.612
	c0.295,0.147,0.635,0.221,1.02,0.221c0.317,0,0.635-0.062,0.952-0.187c0.317-0.125,0.572-0.306,0.765-0.544l1.275,1.292
	c-0.34,0.363-0.776,0.646-1.309,0.85c-0.521,0.193-1.088,0.289-1.7,0.289c-0.601,0-1.173-0.096-1.717-0.289
	c-0.533-0.193-1.003-0.476-1.411-0.85c-0.397-0.374-0.714-0.827-0.952-1.36c-0.227-0.533-0.34-1.139-0.34-1.819
	c0-0.657,0.113-1.252,0.34-1.785c0.238-0.533,0.555-0.986,0.952-1.36c0.397-0.374,0.856-0.663,1.377-0.867
	c0.533-0.204,1.099-0.306,1.7-0.306c0.601,0,1.179,0.113,1.734,0.34c0.567,0.227,1.014,0.538,1.343,0.935L87.865,12.101z
	 M89.416,11.472V9.84h1.428V7.477h2.006V9.84h2.04v1.632h-2.04v3.791c0,0.363,0.062,0.663,0.187,0.901
	c0.136,0.238,0.431,0.357,0.884,0.357c0.136,0,0.283-0.011,0.442-0.034c0.159-0.034,0.3-0.079,0.425-0.136l0.068,1.598
	c-0.181,0.068-0.397,0.119-0.646,0.153c-0.249,0.045-0.487,0.068-0.714,0.068c-0.544,0-0.986-0.074-1.326-0.221
	c-0.34-0.159-0.612-0.368-0.816-0.629c-0.193-0.272-0.329-0.578-0.408-0.918c-0.068-0.351-0.102-0.725-0.102-1.122v-3.808H89.416z"
	/>
<path class="st0" d="M21.5,16.91V7.09c0-0.18-0.1-0.34-0.25-0.43l-8.5-4.91c-0.15-0.09-0.35-0.09-0.5,0l-4.68,2.7l1,1.73l0.87-0.5
	c1.43-0.83,3.27-0.33,4.1,1.1s0.33,3.27-1.1,4.1l-0.87,0.5l1,1.73l0.87-0.5c1.43-0.83,3.27-0.33,4.1,1.1s0.33,3.27-1.1,4.1
	l-0.87,0.5l1,1.73l4.68-2.7C21.4,17.25,21.5,17.09,21.5,16.91z"/>
<path class="st1" d="M14.18,13.92l-2.17,1.25l-2.5-4.33l2.17-1.25c0.72-0.41,0.96-1.33,0.55-2.05c-0.41-0.72-1.33-0.96-2.05-0.55
	L8.01,8.24L6.26,5.21L3.74,6.66C3.59,6.75,3.49,6.91,3.49,7.09v9.81c0,0.18,0.1,0.34,0.25,0.43l8.5,4.91c0.15,0.09,0.35,0.09,0.5,0
	l2.52-1.45l-1.75-3.03l2.17-1.25c0.72-0.41,0.96-1.33,0.55-2.05s-1.33-0.96-2.05-0.55V13.92z"/>
</svg>
