<svg width="132" height="24" viewBox="0 0 132 24" fill="none" xmlns="http://www.w3.org/2000/svg">
<path d="M7.5 14.271L15 8.37798V3.84998C15 3.78698 14.97 3.72798 14.92 3.68998L12.12 1.58998C12.049 1.53698 11.951 1.53698 11.88 1.58998L9.08 3.68998C9.03 3.72798 9 3.78698 9 3.84998V10.286L4.6 6.82798C4.539 6.77998 4.456 6.77198 4.387 6.80698L1.611 8.19498C1.543 8.22898 1.5 8.29798 1.5 8.37398V11.904C1.5 11.965 1.528 12.022 1.575 12.06L7.5 16.8V14.271Z" fill="#AAA4EC"/>
<path d="M9 15.097V22C9 22.276 9.224 22.5 9.5 22.5H14.5C14.776 22.5 15 22.276 15 22V18L22.425 12.06C22.472 12.022 22.5 11.965 22.5 11.904V8.37397C22.5 8.29797 22.457 8.22897 22.389 8.19497L19.613 6.80697C19.544 6.77197 19.461 6.77997 19.4 6.82797L9.076 14.94C9.028 14.978 9 15.036 9 15.097Z" fill="#5548D9"/>
<path d="M39.013 8.786C38.6957 8.35533 38.282 8.04367 37.772 7.851C37.262 7.647 36.7633 7.545 36.276 7.545C35.6527 7.545 35.086 7.65833 34.576 7.885C34.066 8.11167 33.624 8.42333 33.25 8.82C32.8873 9.21667 32.604 9.68133 32.4 10.214C32.2073 10.7467 32.111 11.3247 32.111 11.948C32.111 12.6053 32.2073 13.206 32.4 13.75C32.5927 14.294 32.8647 14.7643 33.216 15.161C33.5787 15.5463 34.0093 15.8467 34.508 16.062C35.0067 16.2773 35.5677 16.385 36.191 16.385C36.837 16.385 37.4093 16.2603 37.908 16.011C38.4067 15.7503 38.809 15.4103 39.115 14.991L40.832 16.198C40.2993 16.8667 39.6477 17.388 38.877 17.762C38.1063 18.1247 37.2053 18.306 36.174 18.306C35.2333 18.306 34.3663 18.153 33.573 17.847C32.791 17.5297 32.1167 17.0933 31.55 16.538C30.9833 15.9713 30.5413 15.3027 30.224 14.532C29.9067 13.75 29.748 12.8887 29.748 11.948C29.748 10.9847 29.9123 10.1177 30.241 9.347C30.581 8.565 31.04 7.902 31.618 7.358C32.2073 6.814 32.8987 6.39467 33.692 6.1C34.4853 5.80533 35.3467 5.658 36.276 5.658C36.6613 5.658 37.0637 5.69767 37.483 5.777C37.9023 5.845 38.3047 5.95833 38.69 6.117C39.0753 6.26433 39.438 6.45133 39.778 6.678C40.118 6.90467 40.407 7.17667 40.645 7.494L39.013 8.786ZM41.3857 13.886C41.3857 13.24 41.499 12.6563 41.7257 12.135C41.9637 11.6023 42.281 11.149 42.6777 10.775C43.0744 10.401 43.5447 10.112 44.0887 9.908C44.6327 9.704 45.2107 9.602 45.8227 9.602C46.4347 9.602 47.0127 9.704 47.5567 9.908C48.1007 10.112 48.571 10.401 48.9677 10.775C49.3644 11.149 49.676 11.6023 49.9027 12.135C50.1407 12.6563 50.2597 13.24 50.2597 13.886C50.2597 14.532 50.1407 15.1213 49.9027 15.654C49.676 16.1867 49.3644 16.6457 48.9677 17.031C48.571 17.405 48.1007 17.6997 47.5567 17.915C47.0127 18.1303 46.4347 18.238 45.8227 18.238C45.2107 18.238 44.6327 18.1303 44.0887 17.915C43.5447 17.6997 43.0744 17.405 42.6777 17.031C42.281 16.6457 41.9637 16.1867 41.7257 15.654C41.499 15.1213 41.3857 14.532 41.3857 13.886ZM43.4597 13.886C43.4597 14.2033 43.505 14.5207 43.5957 14.838C43.6977 15.1553 43.845 15.4387 44.0377 15.688C44.2304 15.9373 44.474 16.1413 44.7687 16.3C45.0634 16.4587 45.4147 16.538 45.8227 16.538C46.2307 16.538 46.582 16.4587 46.8767 16.3C47.1714 16.1413 47.415 15.9373 47.6077 15.688C47.8004 15.4387 47.942 15.1553 48.0327 14.838C48.1347 14.5207 48.1857 14.2033 48.1857 13.886C48.1857 13.5687 48.1347 13.257 48.0327 12.951C47.942 12.6337 47.8004 12.3503 47.6077 12.101C47.415 11.8517 47.1714 11.6533 46.8767 11.506C46.582 11.3473 46.2307 11.268 45.8227 11.268C45.4147 11.268 45.0634 11.3473 44.7687 11.506C44.474 11.6533 44.2304 11.8517 44.0377 12.101C43.845 12.3503 43.6977 12.6337 43.5957 12.951C43.505 13.257 43.4597 13.5687 43.4597 13.886ZM52.2377 9.84H54.1757V11.149H54.2097C54.391 10.741 54.7027 10.384 55.1447 10.078C55.598 9.76067 56.1307 9.602 56.7427 9.602C57.2753 9.602 57.7287 9.69833 58.1027 9.891C58.488 10.0723 58.7997 10.316 59.0377 10.622C59.287 10.928 59.4683 11.2793 59.5817 11.676C59.695 12.0727 59.7517 12.4807 59.7517 12.9V18H57.7117V13.478C57.7117 13.24 57.6947 12.9907 57.6607 12.73C57.6267 12.4693 57.553 12.237 57.4397 12.033C57.3263 11.8177 57.1677 11.642 56.9637 11.506C56.771 11.37 56.5103 11.302 56.1817 11.302C55.853 11.302 55.5697 11.37 55.3317 11.506C55.0937 11.6307 54.8953 11.795 54.7367 11.999C54.5893 12.203 54.476 12.441 54.3967 12.713C54.3173 12.9737 54.2777 13.24 54.2777 13.512V18H52.2377V9.84ZM60.9592 11.472V9.84H62.3872V7.477H64.3932V9.84H66.4332V11.472H64.3932V15.263C64.3932 15.6257 64.4555 15.926 64.5802 16.164C64.7162 16.402 65.0109 16.521 65.4642 16.521C65.6002 16.521 65.7475 16.5097 65.9062 16.487C66.0649 16.453 66.2065 16.4077 66.3312 16.351L66.3992 17.949C66.2179 18.017 66.0025 18.068 65.7532 18.102C65.5039 18.1473 65.2659 18.17 65.0392 18.17C64.4952 18.17 64.0532 18.0963 63.7132 17.949C63.3732 17.7903 63.1012 17.5807 62.8972 17.32C62.7045 17.048 62.5685 16.742 62.4892 16.402C62.4212 16.0507 62.3872 15.6767 62.3872 15.28V11.472H60.9592ZM73.6555 13.104C73.6555 12.8433 73.6159 12.594 73.5365 12.356C73.4685 12.118 73.3552 11.9083 73.1965 11.727C73.0379 11.5457 72.8339 11.404 72.5845 11.302C72.3465 11.1887 72.0632 11.132 71.7345 11.132C71.1225 11.132 70.6012 11.319 70.1705 11.693C69.7512 12.0557 69.5189 12.526 69.4735 13.104H73.6555ZM75.6955 14.022C75.6955 14.1127 75.6955 14.2033 75.6955 14.294C75.6955 14.3847 75.6899 14.4753 75.6785 14.566H69.4735C69.4962 14.8607 69.5699 15.1327 69.6945 15.382C69.8305 15.62 70.0062 15.8297 70.2215 16.011C70.4369 16.181 70.6805 16.317 70.9525 16.419C71.2245 16.521 71.5079 16.572 71.8025 16.572C72.3125 16.572 72.7432 16.4813 73.0945 16.3C73.4459 16.1073 73.7349 15.8467 73.9615 15.518L75.3215 16.606C74.5169 17.694 73.3495 18.238 71.8195 18.238C71.1849 18.238 70.6012 18.1417 70.0685 17.949C69.5359 17.745 69.0712 17.4617 68.6745 17.099C68.2892 16.7363 67.9832 16.2943 67.7565 15.773C67.5412 15.2403 67.4335 14.6397 67.4335 13.971C67.4335 13.3137 67.5412 12.7187 67.7565 12.186C67.9832 11.642 68.2892 11.183 68.6745 10.809C69.0599 10.4237 69.5132 10.129 70.0345 9.925C70.5672 9.70967 71.1395 9.602 71.7515 9.602C72.3182 9.602 72.8395 9.69833 73.3155 9.891C73.8029 10.0723 74.2222 10.35 74.5735 10.724C74.9249 11.0867 75.1969 11.5457 75.3895 12.101C75.5935 12.645 75.6955 13.2853 75.6955 14.022ZM77.6713 9.84H79.6093V11.149H79.6433C79.8246 10.741 80.1363 10.384 80.5783 10.078C81.0316 9.76067 81.5643 9.602 82.1763 9.602C82.7089 9.602 83.1623 9.69833 83.5363 9.891C83.9216 10.0723 84.2333 10.316 84.4713 10.622C84.7206 10.928 84.9019 11.2793 85.0153 11.676C85.1286 12.0727 85.1853 12.4807 85.1853 12.9V18H83.1453V13.478C83.1453 13.24 83.1283 12.9907 83.0943 12.73C83.0603 12.4693 82.9866 12.237 82.8733 12.033C82.7599 11.8177 82.6013 11.642 82.3973 11.506C82.2046 11.37 81.9439 11.302 81.6153 11.302C81.2866 11.302 81.0033 11.37 80.7653 11.506C80.5273 11.6307 80.3289 11.795 80.1703 11.999C80.0229 12.203 79.9096 12.441 79.8303 12.713C79.7509 12.9737 79.7113 13.24 79.7113 13.512V18H77.6713V9.84ZM86.3928 11.472V9.84H87.8208V7.477H89.8268V9.84H91.8668V11.472H89.8268V15.263C89.8268 15.6257 89.8891 15.926 90.0138 16.164C90.1498 16.402 90.4445 16.521 90.8978 16.521C91.0338 16.521 91.1811 16.5097 91.3398 16.487C91.4985 16.453 91.6401 16.4077 91.7648 16.351L91.8328 17.949C91.6515 18.017 91.4361 18.068 91.1868 18.102C90.9375 18.1473 90.6995 18.17 90.4728 18.17C89.9288 18.17 89.4868 18.0963 89.1468 17.949C88.8068 17.7903 88.5348 17.5807 88.3308 17.32C88.1381 17.048 88.0021 16.742 87.9228 16.402C87.8548 16.0507 87.8208 15.6767 87.8208 15.28V11.472H86.3928ZM97.6951 5.964H99.8371V10.826H105.464V5.964H107.606V18H105.464V12.662H99.8371V18H97.6951V5.964ZM117.607 18H115.669V16.691H115.635C115.453 17.099 115.136 17.4617 114.683 17.779C114.241 18.085 113.714 18.238 113.102 18.238C112.569 18.238 112.11 18.1473 111.725 17.966C111.351 17.7733 111.039 17.524 110.79 17.218C110.552 16.912 110.376 16.5607 110.263 16.164C110.149 15.7673 110.093 15.3593 110.093 14.94V9.84H112.133V14.362C112.133 14.6 112.15 14.8493 112.184 15.11C112.218 15.3707 112.291 15.6087 112.405 15.824C112.518 16.028 112.671 16.198 112.864 16.334C113.068 16.47 113.334 16.538 113.663 16.538C113.98 16.538 114.258 16.4757 114.496 16.351C114.745 16.215 114.943 16.045 115.091 15.841C115.249 15.637 115.368 15.4047 115.448 15.144C115.527 14.872 115.567 14.6 115.567 14.328V9.84H117.607V18ZM122.129 5.148V10.877H122.18C122.282 10.741 122.412 10.5993 122.571 10.452C122.73 10.3047 122.917 10.1687 123.132 10.044C123.359 9.91933 123.619 9.81733 123.914 9.738C124.209 9.64733 124.543 9.602 124.917 9.602C125.495 9.602 126.028 9.71533 126.515 9.942C127.002 10.1573 127.422 10.4577 127.773 10.843C128.124 11.2283 128.396 11.6817 128.589 12.203C128.782 12.7243 128.878 13.2853 128.878 13.886C128.878 14.4867 128.782 15.0533 128.589 15.586C128.408 16.1073 128.141 16.5663 127.79 16.963C127.45 17.3483 127.031 17.66 126.532 17.898C126.045 18.1247 125.489 18.238 124.866 18.238C124.288 18.238 123.744 18.1133 123.234 17.864C122.735 17.6147 122.344 17.252 122.061 16.776H122.027V18H120.089V5.148H122.129ZM126.804 13.886C126.804 13.5687 126.753 13.257 126.651 12.951C126.56 12.6337 126.419 12.3503 126.226 12.101C126.033 11.8517 125.79 11.6533 125.495 11.506C125.2 11.3473 124.855 11.268 124.458 11.268C124.084 11.268 123.75 11.3473 123.455 11.506C123.16 11.6647 122.905 11.8687 122.69 12.118C122.486 12.3673 122.327 12.6507 122.214 12.968C122.112 13.2853 122.061 13.6027 122.061 13.92C122.061 14.2373 122.112 14.5547 122.214 14.872C122.327 15.178 122.486 15.4557 122.69 15.705C122.905 15.9543 123.16 16.1583 123.455 16.317C123.75 16.4643 124.084 16.538 124.458 16.538C124.855 16.538 125.2 16.4587 125.495 16.3C125.79 16.1413 126.033 15.9373 126.226 15.688C126.419 15.4387 126.56 15.1553 126.651 14.838C126.753 14.5207 126.804 14.2033 126.804 13.886Z" fill="black"/>
</svg>
