<svg width="24" height="24" viewBox="0 0 24 24" fill="none" xmlns="http://www.w3.org/2000/svg">
<path d="M7.5 14.271L15 8.37804V3.85004C15 3.78704 14.97 3.72804 14.92 3.69004L12.12 1.59004C12.049 1.53704 11.951 1.53704 11.88 1.59004L9.08 3.69004C9.03 3.72804 9 3.78704 9 3.85004V10.286L4.6 6.82804C4.539 6.78004 4.456 6.77204 4.387 6.80704L1.611 8.19504C1.543 8.22904 1.5 8.29804 1.5 8.37404V11.904C1.5 11.965 1.528 12.022 1.575 12.06L7.5 16.8V14.271Z" fill="#F47F8C"/>
<path d="M9 15.097V22C9 22.276 9.224 22.5 9.5 22.5H14.5C14.776 22.5 15 22.276 15 22V18L22.425 12.06C22.472 12.022 22.5 11.965 22.5 11.904V8.37397C22.5 8.29797 22.457 8.22897 22.389 8.19497L19.613 6.80697C19.544 6.77197 19.461 6.77997 19.4 6.82797L9.076 14.94C9.028 14.978 9 15.036 9 15.097Z" fill="#EB001A"/>
</svg>
