<svg width="100" height="24" viewBox="0 0 100 24" fill="none" xmlns="http://www.w3.org/2000/svg">
<path d="M18.5 6V18H21.5C21.78 18 22 17.78 22 17.5V6.5C22 6.22 21.78 6 21.5 6H18.5Z" fill="#81CCCD"/>
<path d="M2.5 18H5.5V6H2.5C2.22 6 2 6.22 2 6.5V17.5C2 17.78 2.22 18 2.5 18Z" fill="#81CCCD"/>
<path d="M16.5 4H7.5C7.22386 4 7 4.22386 7 4.5V19.5C7 19.7761 7.22386 20 7.5 20H16.5C16.7761 20 17 19.7761 17 19.5V4.5C17 4.22386 16.7761 4 16.5 4Z" fill="#02999A"/>
<path d="M30.326 5.964H34.593C35.375 5.964 36.1627 6.066 36.956 6.27C37.7493 6.474 38.4633 6.814 39.098 7.29C39.7327 7.75467 40.2483 8.37233 40.645 9.143C41.0417 9.90233 41.24 10.8487 41.24 11.982C41.24 13.036 41.0417 13.9427 40.645 14.702C40.2483 15.4613 39.7327 16.0847 39.098 16.572C38.4633 17.0593 37.7493 17.422 36.956 17.66C36.1627 17.8867 35.375 18 34.593 18H30.326V5.964ZM34.253 16.13C34.8083 16.13 35.3637 16.0677 35.919 15.943C36.4743 15.807 36.973 15.586 37.415 15.28C37.8683 14.9627 38.2367 14.5377 38.52 14.005C38.8033 13.4723 38.945 12.798 38.945 11.982C38.945 11.1207 38.8033 10.418 38.52 9.874C38.2367 9.33 37.8683 8.905 37.415 8.599C36.973 8.293 36.4743 8.08333 35.919 7.97C35.3637 7.85667 34.8083 7.8 34.253 7.8H32.468V16.13H34.253ZM43.2404 9.84H45.2804V18H43.2404V9.84ZM42.9514 7.069C42.9514 6.74033 43.0704 6.457 43.3084 6.219C43.5578 5.96967 43.8694 5.845 44.2434 5.845C44.6174 5.845 44.9291 5.964 45.1784 6.202C45.4391 6.42867 45.5694 6.71767 45.5694 7.069C45.5694 7.42033 45.4391 7.715 45.1784 7.953C44.9291 8.17967 44.6174 8.293 44.2434 8.293C43.8694 8.293 43.5578 8.174 43.3084 7.936C43.0704 7.68667 42.9514 7.39767 42.9514 7.069ZM52.2263 12.016C52.0449 11.778 51.7956 11.574 51.4783 11.404C51.1609 11.2227 50.8153 11.132 50.4413 11.132C50.1126 11.132 49.8123 11.2 49.5403 11.336C49.2683 11.472 49.1323 11.6987 49.1323 12.016C49.1323 12.3333 49.2796 12.56 49.5743 12.696C49.8803 12.8207 50.3223 12.951 50.9002 13.087C51.2063 13.155 51.5123 13.2457 51.8183 13.359C52.1356 13.4723 52.4189 13.6253 52.6683 13.818C52.9289 13.9993 53.1386 14.2317 53.2973 14.515C53.4559 14.787 53.5353 15.1213 53.5353 15.518C53.5353 16.0167 53.4389 16.4417 53.2463 16.793C53.0649 17.133 52.8156 17.4107 52.4983 17.626C52.1923 17.8413 51.8296 17.9943 51.4103 18.085C51.0023 18.187 50.5773 18.238 50.1353 18.238C49.5006 18.238 48.8829 18.1247 48.2823 17.898C47.6816 17.66 47.1829 17.3257 46.7863 16.895L48.1293 15.637C48.3559 15.9317 48.6506 16.1753 49.0133 16.368C49.3759 16.5607 49.7783 16.657 50.2203 16.657C50.3676 16.657 50.5149 16.64 50.6623 16.606C50.8209 16.572 50.9626 16.521 51.0873 16.453C51.2233 16.3737 51.3309 16.2717 51.4103 16.147C51.4896 16.0223 51.5292 15.8693 51.5292 15.688C51.5292 15.348 51.3706 15.1043 51.0533 14.957C50.7473 14.8097 50.2826 14.6623 49.6593 14.515C49.3533 14.447 49.0529 14.362 48.7583 14.26C48.4749 14.1467 48.2199 14.005 47.9933 13.835C47.7666 13.6537 47.5853 13.4327 47.4493 13.172C47.3133 12.9113 47.2453 12.5883 47.2453 12.203C47.2453 11.7497 47.3359 11.3587 47.5173 11.03C47.7099 10.7013 47.9593 10.435 48.2653 10.231C48.5713 10.0157 48.9169 9.857 49.3023 9.755C49.6876 9.653 50.0843 9.602 50.4923 9.602C51.0816 9.602 51.6539 9.704 52.2093 9.908C52.7759 10.112 53.2236 10.4237 53.5523 10.843L52.2263 12.016ZM60.885 12.101C60.7263 11.8743 60.4883 11.6873 60.171 11.54C59.8536 11.3813 59.5306 11.302 59.202 11.302C58.828 11.302 58.4993 11.3813 58.216 11.54C57.9326 11.6873 57.6946 11.8857 57.502 12.135C57.3206 12.3843 57.1846 12.6677 57.094 12.985C57.0033 13.291 56.958 13.6027 56.958 13.92C56.958 14.2373 57.0033 14.5547 57.094 14.872C57.196 15.178 57.3433 15.4557 57.536 15.705C57.7286 15.9543 57.9666 16.1583 58.25 16.317C58.5446 16.4643 58.8846 16.538 59.27 16.538C59.5873 16.538 59.9046 16.4757 60.222 16.351C60.5393 16.2263 60.7943 16.045 60.987 15.807L62.262 17.099C61.922 17.4617 61.4856 17.745 60.953 17.949C60.4316 18.1417 59.865 18.238 59.253 18.238C58.6523 18.238 58.08 18.1417 57.536 17.949C57.0033 17.7563 56.533 17.473 56.125 17.099C55.7283 16.725 55.411 16.2717 55.173 15.739C54.9463 15.2063 54.833 14.6 54.833 13.92C54.833 13.2627 54.9463 12.6677 55.173 12.135C55.411 11.6023 55.7283 11.149 56.125 10.775C56.5216 10.401 56.9806 10.112 57.502 9.908C58.0346 9.704 58.6013 9.602 59.202 9.602C59.8026 9.602 60.3806 9.71533 60.936 9.942C61.5026 10.1687 61.9503 10.4803 62.279 10.877L60.885 12.101ZM63.1337 13.886C63.1337 13.24 63.2471 12.6563 63.4737 12.135C63.7117 11.6023 64.0291 11.149 64.4257 10.775C64.8224 10.401 65.2927 10.112 65.8367 9.908C66.3807 9.704 66.9587 9.602 67.5707 9.602C68.1827 9.602 68.7607 9.704 69.3047 9.908C69.8487 10.112 70.3191 10.401 70.7157 10.775C71.1124 11.149 71.4241 11.6023 71.6507 12.135C71.8887 12.6563 72.0077 13.24 72.0077 13.886C72.0077 14.532 71.8887 15.1213 71.6507 15.654C71.4241 16.1867 71.1124 16.6457 70.7157 17.031C70.3191 17.405 69.8487 17.6997 69.3047 17.915C68.7607 18.1303 68.1827 18.238 67.5707 18.238C66.9587 18.238 66.3807 18.1303 65.8367 17.915C65.2927 17.6997 64.8224 17.405 64.4257 17.031C64.0291 16.6457 63.7117 16.1867 63.4737 15.654C63.2471 15.1213 63.1337 14.532 63.1337 13.886ZM65.2077 13.886C65.2077 14.2033 65.2531 14.5207 65.3437 14.838C65.4457 15.1553 65.5931 15.4387 65.7857 15.688C65.9784 15.9373 66.2221 16.1413 66.5167 16.3C66.8114 16.4587 67.1627 16.538 67.5707 16.538C67.9787 16.538 68.3301 16.4587 68.6247 16.3C68.9194 16.1413 69.1631 15.9373 69.3557 15.688C69.5484 15.4387 69.6901 15.1553 69.7807 14.838C69.8827 14.5207 69.9337 14.2033 69.9337 13.886C69.9337 13.5687 69.8827 13.257 69.7807 12.951C69.6901 12.6337 69.5484 12.3503 69.3557 12.101C69.1631 11.8517 68.9194 11.6533 68.6247 11.506C68.3301 11.3473 67.9787 11.268 67.5707 11.268C67.1627 11.268 66.8114 11.3473 66.5167 11.506C66.2221 11.6533 65.9784 11.8517 65.7857 12.101C65.5931 12.3503 65.4457 12.6337 65.3437 12.951C65.2531 13.257 65.2077 13.5687 65.2077 13.886ZM72.7617 9.84H74.9887L77.1307 15.79H77.1647L79.3237 9.84H81.4827L78.2357 18H76.0597L72.7617 9.84ZM88.4475 13.104C88.4475 12.8433 88.4079 12.594 88.3285 12.356C88.2605 12.118 88.1472 11.9083 87.9885 11.727C87.8299 11.5457 87.6259 11.404 87.3765 11.302C87.1385 11.1887 86.8552 11.132 86.5265 11.132C85.9145 11.132 85.3932 11.319 84.9625 11.693C84.5432 12.0557 84.3109 12.526 84.2655 13.104H88.4475ZM90.4875 14.022C90.4875 14.1127 90.4875 14.2033 90.4875 14.294C90.4875 14.3847 90.4819 14.4753 90.4705 14.566H84.2655C84.2882 14.8607 84.3619 15.1327 84.4865 15.382C84.6225 15.62 84.7982 15.8297 85.0135 16.011C85.2289 16.181 85.4725 16.317 85.7445 16.419C86.0165 16.521 86.2999 16.572 86.5945 16.572C87.1045 16.572 87.5352 16.4813 87.8865 16.3C88.2379 16.1073 88.5269 15.8467 88.7535 15.518L90.1135 16.606C89.3089 17.694 88.1415 18.238 86.6115 18.238C85.9769 18.238 85.3932 18.1417 84.8605 17.949C84.3279 17.745 83.8632 17.4617 83.4665 17.099C83.0812 16.7363 82.7752 16.2943 82.5485 15.773C82.3332 15.2403 82.2255 14.6397 82.2255 13.971C82.2255 13.3137 82.3332 12.7187 82.5485 12.186C82.7752 11.642 83.0812 11.183 83.4665 10.809C83.8519 10.4237 84.3052 10.129 84.8265 9.925C85.3592 9.70967 85.9315 9.602 86.5435 9.602C87.1102 9.602 87.6315 9.69833 88.1075 9.891C88.5949 10.0723 89.0142 10.35 89.3655 10.724C89.7169 11.0867 89.9889 11.5457 90.1815 12.101C90.3855 12.645 90.4875 13.2853 90.4875 14.022ZM92.4633 9.84H94.4183V11.2H94.4523C94.6789 10.724 94.9963 10.3387 95.4043 10.044C95.8123 9.74933 96.2883 9.602 96.8323 9.602C96.9116 9.602 96.9966 9.60767 97.0873 9.619C97.1779 9.619 97.2573 9.63033 97.3253 9.653V11.523C97.1893 11.489 97.0703 11.4663 96.9683 11.455C96.8776 11.4437 96.7869 11.438 96.6963 11.438C96.2316 11.438 95.8576 11.523 95.5743 11.693C95.2909 11.863 95.0699 12.067 94.9113 12.305C94.7526 12.543 94.6449 12.7867 94.5883 13.036C94.5316 13.2853 94.5033 13.4837 94.5033 13.631V18H92.4633V9.84Z" fill="black"/>
</svg>
