<svg width="24" height="24" viewBox="0 0 24 24" fill="none" xmlns="http://www.w3.org/2000/svg">
<path d="M23.7999 11.6801C23.4399 10.3001 22.5799 9.07012 21.4099 8.25012C19.9799 7.26012 18.4199 7.19012 16.7399 7.19012C16.6899 7.19012 16.6399 7.16012 16.5999 7.12012C15.2599 5.44012 13.9699 4.37012 11.6399 4.37012C8.59993 4.37012 6.58993 6.20012 5.60993 8.82012C5.56993 8.93012 5.63993 9.04012 5.75993 9.06012C8.59993 9.41012 10.7699 11.8201 10.7699 14.7301C10.7699 16.3301 10.1099 17.8201 8.98993 18.8701C8.87993 18.9801 8.94993 19.1701 9.09993 19.1701H17.9799C21.2899 19.1701 23.9699 16.4901 23.9699 13.1801C23.9699 12.6701 23.8999 12.1701 23.7699 11.6701L23.7999 11.6801Z" fill="#F47F8C"/>
<path d="M4.8 10.04C2.15 10.04 0 12.19 0 14.84C0 17.49 2.15 19.64 4.8 19.64C7.45 19.64 9.6 17.49 9.6 14.84C9.6 12.19 7.45 10.04 4.8 10.04ZM4.8 17.92C3.1 17.92 1.72 16.54 1.72 14.84C1.72 13.14 3.1 11.76 4.8 11.76C6.5 11.76 7.88 13.14 7.88 14.84C7.88 16.54 6.5 17.92 4.8 17.92Z" fill="#EB001A"/>
</svg>
