<svg width="121" height="24" viewBox="0 0 121 24" fill="none" xmlns="http://www.w3.org/2000/svg">
<path d="M12 6.01001V2.51001C12 2.22001 11.76 1.99001 11.48 2.00001C6.2 2.27001 2 6.64001 2 11.99C2 15.48 3.79 18.55 6.5 20.34V11.99C6.5 9.11001 8.71 6.75001 11.52 6.51001C11.79 6.49001 12 6.28001 12 6.01001Z" fill="#F58F8F"/>
<path d="M17.48 12.46C17.24 15.27 14.88 17.48 12 17.48V16.45C12 16.19 12.21 15.99 12.46 15.96C14.75 15.7 16.45 13.5 15.89 11.04C15.56 9.58999 14.39 8.41999 12.94 8.08999C10.32 7.48999 8 9.46999 8 11.98V20.8C8 21.01 8.12 21.2 8.31 21.27C9.45 21.72 10.69 21.98 12 21.98C17.35 21.98 21.72 17.78 21.99 12.5C22 12.22 21.77 11.98 21.49 11.98H18.25C17.71 11.98 17.51 12.19 17.48 12.46Z" fill="#EB1F1F"/>
<path d="M30.326 5.964H34.253C34.9443 5.964 35.5677 6.02633 36.123 6.151C36.6783 6.27567 37.1543 6.47967 37.551 6.763C37.9477 7.04633 38.2537 7.409 38.469 7.851C38.6843 8.293 38.792 8.82567 38.792 9.449C38.792 10.1177 38.6673 10.6787 38.418 11.132C38.1687 11.5853 37.8287 11.9537 37.398 12.237C36.9787 12.509 36.4857 12.7073 35.919 12.832C35.3523 12.9567 34.7517 13.019 34.117 13.019H32.468V18H30.326V5.964ZM33.964 11.217C34.3153 11.217 34.6497 11.1943 34.967 11.149C35.2843 11.0923 35.5677 11.0017 35.817 10.877C36.0663 10.741 36.2647 10.5597 36.412 10.333C36.5593 10.1063 36.633 9.81167 36.633 9.449C36.633 9.09767 36.5593 8.81433 36.412 8.599C36.2647 8.37233 36.0663 8.19667 35.817 8.072C35.579 7.94733 35.3013 7.868 34.984 7.834C34.678 7.78867 34.3607 7.766 34.032 7.766H32.468V11.217H33.964ZM45.2337 13.104C45.2337 12.8433 45.194 12.594 45.1147 12.356C45.0467 12.118 44.9333 11.9083 44.7747 11.727C44.616 11.5457 44.412 11.404 44.1627 11.302C43.9247 11.1887 43.6413 11.132 43.3127 11.132C42.7007 11.132 42.1793 11.319 41.7487 11.693C41.3293 12.0557 41.097 12.526 41.0517 13.104H45.2337ZM47.2737 14.022C47.2737 14.1127 47.2737 14.2033 47.2737 14.294C47.2737 14.3847 47.268 14.4753 47.2567 14.566H41.0517C41.0743 14.8607 41.148 15.1327 41.2727 15.382C41.4087 15.62 41.5843 15.8297 41.7997 16.011C42.015 16.181 42.2587 16.317 42.5307 16.419C42.8027 16.521 43.086 16.572 43.3807 16.572C43.8907 16.572 44.3213 16.4813 44.6727 16.3C45.024 16.1073 45.313 15.8467 45.5397 15.518L46.8997 16.606C46.095 17.694 44.9277 18.238 43.3977 18.238C42.763 18.238 42.1793 18.1417 41.6467 17.949C41.114 17.745 40.6493 17.4617 40.2527 17.099C39.8673 16.7363 39.5613 16.2943 39.3347 15.773C39.1193 15.2403 39.0117 14.6397 39.0117 13.971C39.0117 13.3137 39.1193 12.7187 39.3347 12.186C39.5613 11.642 39.8673 11.183 40.2527 10.809C40.638 10.4237 41.0913 10.129 41.6127 9.925C42.1453 9.70967 42.7177 9.602 43.3297 9.602C43.8963 9.602 44.4177 9.69833 44.8937 9.891C45.381 10.0723 45.8003 10.35 46.1517 10.724C46.503 11.0867 46.775 11.5457 46.9677 12.101C47.1717 12.645 47.2737 13.2853 47.2737 14.022ZM49.2494 9.84H51.2044V11.2H51.2384C51.4651 10.724 51.7824 10.3387 52.1904 10.044C52.5984 9.74933 53.0744 9.602 53.6184 9.602C53.6977 9.602 53.7827 9.60767 53.8734 9.619C53.9641 9.619 54.0434 9.63033 54.1114 9.653V11.523C53.9754 11.489 53.8564 11.4663 53.7544 11.455C53.6637 11.4437 53.5731 11.438 53.4824 11.438C53.0177 11.438 52.6437 11.523 52.3604 11.693C52.0771 11.863 51.8561 12.067 51.6974 12.305C51.5387 12.543 51.4311 12.7867 51.3744 13.036C51.3177 13.2853 51.2894 13.4837 51.2894 13.631V18H49.2494V9.84ZM59.9128 12.016C59.7314 11.778 59.4821 11.574 59.1648 11.404C58.8474 11.2227 58.5018 11.132 58.1278 11.132C57.7991 11.132 57.4988 11.2 57.2268 11.336C56.9548 11.472 56.8188 11.6987 56.8188 12.016C56.8188 12.3333 56.9661 12.56 57.2608 12.696C57.5668 12.8207 58.0088 12.951 58.5868 13.087C58.8928 13.155 59.1988 13.2457 59.5048 13.359C59.8221 13.4723 60.1054 13.6253 60.3548 13.818C60.6154 13.9993 60.8251 14.2317 60.9838 14.515C61.1424 14.787 61.2218 15.1213 61.2218 15.518C61.2218 16.0167 61.1254 16.4417 60.9328 16.793C60.7514 17.133 60.5021 17.4107 60.1848 17.626C59.8788 17.8413 59.5161 17.9943 59.0968 18.085C58.6888 18.187 58.2638 18.238 57.8218 18.238C57.1871 18.238 56.5694 18.1247 55.9688 17.898C55.3681 17.66 54.8694 17.3257 54.4728 16.895L55.8158 15.637C56.0424 15.9317 56.3371 16.1753 56.6998 16.368C57.0624 16.5607 57.4648 16.657 57.9068 16.657C58.0541 16.657 58.2014 16.64 58.3488 16.606C58.5074 16.572 58.6491 16.521 58.7738 16.453C58.9098 16.3737 59.0174 16.2717 59.0968 16.147C59.1761 16.0223 59.2158 15.8693 59.2158 15.688C59.2158 15.348 59.0571 15.1043 58.7398 14.957C58.4338 14.8097 57.9691 14.6623 57.3458 14.515C57.0398 14.447 56.7394 14.362 56.4448 14.26C56.1614 14.1467 55.9064 14.005 55.6798 13.835C55.4531 13.6537 55.2718 13.4327 55.1358 13.172C54.9998 12.9113 54.9318 12.5883 54.9318 12.203C54.9318 11.7497 55.0224 11.3587 55.2038 11.03C55.3964 10.7013 55.6458 10.435 55.9518 10.231C56.2578 10.0157 56.6034 9.857 56.9888 9.755C57.3741 9.653 57.7708 9.602 58.1788 9.602C58.7681 9.602 59.3404 9.704 59.8958 9.908C60.4624 10.112 60.9101 10.4237 61.2388 10.843L59.9128 12.016ZM62.5195 13.886C62.5195 13.24 62.6328 12.6563 62.8595 12.135C63.0975 11.6023 63.4148 11.149 63.8115 10.775C64.2082 10.401 64.6785 10.112 65.2225 9.908C65.7665 9.704 66.3445 9.602 66.9565 9.602C67.5685 9.602 68.1465 9.704 68.6905 9.908C69.2345 10.112 69.7048 10.401 70.1015 10.775C70.4982 11.149 70.8098 11.6023 71.0365 12.135C71.2745 12.6563 71.3935 13.24 71.3935 13.886C71.3935 14.532 71.2745 15.1213 71.0365 15.654C70.8098 16.1867 70.4982 16.6457 70.1015 17.031C69.7048 17.405 69.2345 17.6997 68.6905 17.915C68.1465 18.1303 67.5685 18.238 66.9565 18.238C66.3445 18.238 65.7665 18.1303 65.2225 17.915C64.6785 17.6997 64.2082 17.405 63.8115 17.031C63.4148 16.6457 63.0975 16.1867 62.8595 15.654C62.6328 15.1213 62.5195 14.532 62.5195 13.886ZM64.5935 13.886C64.5935 14.2033 64.6388 14.5207 64.7295 14.838C64.8315 15.1553 64.9788 15.4387 65.1715 15.688C65.3642 15.9373 65.6078 16.1413 65.9025 16.3C66.1972 16.4587 66.5485 16.538 66.9565 16.538C67.3645 16.538 67.7158 16.4587 68.0105 16.3C68.3052 16.1413 68.5488 15.9373 68.7415 15.688C68.9342 15.4387 69.0758 15.1553 69.1665 14.838C69.2685 14.5207 69.3195 14.2033 69.3195 13.886C69.3195 13.5687 69.2685 13.257 69.1665 12.951C69.0758 12.6337 68.9342 12.3503 68.7415 12.101C68.5488 11.8517 68.3052 11.6533 68.0105 11.506C67.7158 11.3473 67.3645 11.268 66.9565 11.268C66.5485 11.268 66.1972 11.3473 65.9025 11.506C65.6078 11.6533 65.3642 11.8517 65.1715 12.101C64.9788 12.3503 64.8315 12.6337 64.7295 12.951C64.6388 13.257 64.5935 13.5687 64.5935 13.886ZM73.3715 9.84H75.3095V11.149H75.3435C75.5248 10.741 75.8365 10.384 76.2785 10.078C76.7318 9.76067 77.2645 9.602 77.8765 9.602C78.4091 9.602 78.8625 9.69833 79.2365 9.891C79.6218 10.0723 79.9335 10.316 80.1715 10.622C80.4208 10.928 80.6021 11.2793 80.7155 11.676C80.8288 12.0727 80.8855 12.4807 80.8855 12.9V18H78.8455V13.478C78.8455 13.24 78.8285 12.9907 78.7945 12.73C78.7605 12.4693 78.6868 12.237 78.5735 12.033C78.4601 11.8177 78.3015 11.642 78.0975 11.506C77.9048 11.37 77.6441 11.302 77.3155 11.302C76.9868 11.302 76.7035 11.37 76.4655 11.506C76.2275 11.6307 76.0291 11.795 75.8705 11.999C75.7231 12.203 75.6098 12.441 75.5305 12.713C75.4511 12.9737 75.4115 13.24 75.4115 13.512V18H73.3715V9.84ZM88.332 16.963H88.281C88.077 17.3257 87.7483 17.626 87.295 17.864C86.8417 18.0907 86.326 18.204 85.748 18.204C85.4193 18.204 85.0737 18.1587 84.711 18.068C84.3597 17.9887 84.031 17.8527 83.725 17.66C83.4303 17.456 83.181 17.1953 82.977 16.878C82.7843 16.5493 82.688 16.147 82.688 15.671C82.688 15.059 82.858 14.5717 83.198 14.209C83.5493 13.8463 83.997 13.5687 84.541 13.376C85.085 13.1833 85.6857 13.0587 86.343 13.002C87.0117 12.934 87.6633 12.9 88.298 12.9V12.696C88.298 12.186 88.111 11.812 87.737 11.574C87.3743 11.3247 86.938 11.2 86.428 11.2C85.9973 11.2 85.5837 11.2907 85.187 11.472C84.7903 11.6533 84.4617 11.8743 84.201 12.135L83.147 10.894C83.6117 10.4633 84.1443 10.1403 84.745 9.925C85.357 9.70967 85.9747 9.602 86.598 9.602C87.3233 9.602 87.9183 9.704 88.383 9.908C88.859 10.112 89.233 10.3783 89.505 10.707C89.777 11.0357 89.964 11.404 90.066 11.812C90.1793 12.22 90.236 12.628 90.236 13.036V18H88.332V16.963ZM88.298 14.277H87.839C87.5103 14.277 87.1647 14.294 86.802 14.328C86.4393 14.3507 86.105 14.413 85.799 14.515C85.493 14.6057 85.238 14.7417 85.034 14.923C84.83 15.093 84.728 15.331 84.728 15.637C84.728 15.8297 84.7677 15.994 84.847 16.13C84.9377 16.2547 85.051 16.3567 85.187 16.436C85.323 16.5153 85.476 16.572 85.646 16.606C85.816 16.64 85.986 16.657 86.156 16.657C86.8587 16.657 87.3913 16.47 87.754 16.096C88.1167 15.722 88.298 15.212 88.298 14.566V14.277ZM92.6467 5.148H94.6867V18H92.6467V5.148ZM97.1955 9.84H99.2355V18H97.1955V9.84ZM96.9065 7.069C96.9065 6.74033 97.0255 6.457 97.2635 6.219C97.5128 5.96967 97.8245 5.845 98.1985 5.845C98.5725 5.845 98.8842 5.964 99.1335 6.202C99.3942 6.42867 99.5245 6.71767 99.5245 7.069C99.5245 7.42033 99.3942 7.715 99.1335 7.953C98.8842 8.17967 98.5725 8.293 98.1985 8.293C97.8245 8.293 97.5128 8.174 97.2635 7.936C97.0255 7.68667 96.9065 7.39767 96.9065 7.069ZM101.064 16.198L105.467 11.472H101.268V9.84H107.898V11.642L103.478 16.334H108.102V18H101.064V16.198ZM115.658 13.104C115.658 12.8433 115.618 12.594 115.539 12.356C115.471 12.118 115.357 11.9083 115.199 11.727C115.04 11.5457 114.836 11.404 114.587 11.302C114.349 11.1887 114.065 11.132 113.737 11.132C113.125 11.132 112.603 11.319 112.173 11.693C111.753 12.0557 111.521 12.526 111.476 13.104H115.658ZM117.698 14.022C117.698 14.1127 117.698 14.2033 117.698 14.294C117.698 14.3847 117.692 14.4753 117.681 14.566H111.476C111.498 14.8607 111.572 15.1327 111.697 15.382C111.833 15.62 112.008 15.8297 112.224 16.011C112.439 16.181 112.683 16.317 112.955 16.419C113.227 16.521 113.51 16.572 113.805 16.572C114.315 16.572 114.745 16.4813 115.097 16.3C115.448 16.1073 115.737 15.8467 115.964 15.518L117.324 16.606C116.519 17.694 115.352 18.238 113.822 18.238C113.187 18.238 112.603 18.1417 112.071 17.949C111.538 17.745 111.073 17.4617 110.677 17.099C110.291 16.7363 109.985 16.2943 109.759 15.773C109.543 15.2403 109.436 14.6397 109.436 13.971C109.436 13.3137 109.543 12.7187 109.759 12.186C109.985 11.642 110.291 11.183 110.677 10.809C111.062 10.4237 111.515 10.129 112.037 9.925C112.569 9.70967 113.142 9.602 113.754 9.602C114.32 9.602 114.842 9.69833 115.318 9.891C115.805 10.0723 116.224 10.35 116.576 10.724C116.927 11.0867 117.199 11.5457 117.392 12.101C117.596 12.645 117.698 13.2853 117.698 14.022Z" fill="black"/>
</svg>
