<?xml version="1.0" encoding="UTF-8" standalone="no"?>
<svg
   width="84"
   height="24"
   viewBox="0 0 84 24"
   fill="none"
   version="1.1"
   id="svg367"
   sodipodi:docname="sitecore-search.svg"
   inkscape:version="1.1.2 (0a00cf5339, 2022-02-04, custom)"
   xmlns:inkscape="http://www.inkscape.org/namespaces/inkscape"
   xmlns:sodipodi="http://sodipodi.sourceforge.net/DTD/sodipodi-0.dtd"
   xmlns="http://www.w3.org/2000/svg"
   xmlns:svg="http://www.w3.org/2000/svg">
  <defs
     id="defs371" />
  <sodipodi:namedview
     id="namedview369"
     pagecolor="#ffffff"
     bordercolor="#666666"
     borderopacity="1.0"
     inkscape:pageshadow="2"
     inkscape:pageopacity="0.0"
     inkscape:pagecheckerboard="0"
     showgrid="false"
     inkscape:zoom="15.702381"
     inkscape:cx="42"
     inkscape:cy="12.004549"
     inkscape:window-width="1920"
     inkscape:window-height="1111"
     inkscape:window-x="-9"
     inkscape:window-y="-9"
     inkscape:window-maximized="1"
     inkscape:current-layer="svg367" />
  <path
     d="M20.85 14.9001L21.73 4.29006C21.73 4.18006 21.66 4.08006 21.55 4.07006L10.99 3.15006C10.86 3.14006 10.73 3.18006 10.63 3.27006L2.68998 9.92006C2.55998 10.0301 2.61998 10.2401 2.77998 10.2701L6.84998 10.9901C7.33998 8.34006 9.72998 6.35006 12.56 6.50006C15.39 6.65006 17.7 9.06006 17.75 11.8801C17.81 14.9301 15.38 17.4301 12.35 17.4801V21.7301C12.35 21.9001 12.55 21.9901 12.68 21.8801L20.66 15.2201C20.76 15.1301 20.83 15.0101 20.84 14.8801L20.85 14.9001Z"
     fill="#5548D9"
     id="path361" />
  <path
     d="M12.26 16.0001C14.4691 16.0001 16.26 14.2092 16.26 12.0001C16.26 9.79092 14.4691 8.00006 12.26 8.00006C10.0509 8.00006 8.26001 9.79092 8.26001 12.0001C8.26001 14.2092 10.0509 16.0001 12.26 16.0001Z"
     fill="#AAA4EC"
     id="path363" />
  <path
     d="M36.463 8.48C36.2363 8.18533 35.9133 7.94167 35.494 7.749C35.086 7.545 34.6723 7.443 34.253 7.443C34.0037 7.443 33.7543 7.477 33.505 7.545C33.2557 7.60167 33.029 7.698 32.825 7.834C32.621 7.95867 32.451 8.12867 32.315 8.344C32.1903 8.548 32.128 8.79733 32.128 9.092C32.128 9.364 32.1847 9.59633 32.298 9.789C32.4113 9.98167 32.5643 10.146 32.757 10.282C32.961 10.418 33.2047 10.537 33.488 10.639C33.7713 10.741 34.083 10.843 34.423 10.945C34.8083 11.0697 35.205 11.2113 35.613 11.37C36.0323 11.5287 36.412 11.7383 36.752 11.999C37.1033 12.2597 37.3867 12.5883 37.602 12.985C37.8287 13.3817 37.942 13.8747 37.942 14.464C37.942 15.11 37.823 15.6767 37.585 16.164C37.347 16.64 37.0297 17.0367 36.633 17.354C36.2363 17.6713 35.7717 17.9093 35.239 18.068C34.7063 18.2267 34.1453 18.306 33.556 18.306C32.774 18.306 32.009 18.1643 31.261 17.881C30.513 17.5863 29.901 17.1557 29.425 16.589L30.955 15.161C31.2497 15.569 31.6407 15.892 32.128 16.13C32.6267 16.368 33.114 16.487 33.59 16.487C33.8393 16.487 34.0943 16.4587 34.355 16.402C34.6157 16.334 34.848 16.2263 35.052 16.079C35.2673 15.9317 35.4373 15.7503 35.562 15.535C35.698 15.3083 35.766 15.0307 35.766 14.702C35.766 14.3847 35.6923 14.124 35.545 13.92C35.3977 13.7047 35.1993 13.5233 34.95 13.376C34.7007 13.2173 34.406 13.0813 34.066 12.968C33.726 12.8547 33.369 12.7357 32.995 12.611C32.6323 12.4977 32.2697 12.3617 31.907 12.203C31.5443 12.0443 31.2157 11.8347 30.921 11.574C30.6377 11.3133 30.4053 10.996 30.224 10.622C30.0427 10.2367 29.952 9.76067 29.952 9.194C29.952 8.582 30.0767 8.055 30.326 7.613C30.5867 7.171 30.921 6.80833 31.329 6.525C31.7483 6.23033 32.2187 6.015 32.74 5.879C33.2727 5.73167 33.811 5.658 34.355 5.658C34.967 5.658 35.5847 5.76567 36.208 5.981C36.8427 6.19633 37.3923 6.51933 37.857 6.95L36.463 8.48ZM45.7317 13.104C45.7317 12.8433 45.6921 12.594 45.6127 12.356C45.5447 12.118 45.4314 11.9083 45.2727 11.727C45.1141 11.5457 44.9101 11.404 44.6607 11.302C44.4227 11.1887 44.1394 11.132 43.8107 11.132C43.1987 11.132 42.6774 11.319 42.2467 11.693C41.8274 12.0557 41.5951 12.526 41.5497 13.104H45.7317ZM47.7717 14.022C47.7717 14.1127 47.7717 14.2033 47.7717 14.294C47.7717 14.3847 47.7661 14.4753 47.7547 14.566H41.5497C41.5724 14.8607 41.6461 15.1327 41.7707 15.382C41.9067 15.62 42.0824 15.8297 42.2977 16.011C42.5131 16.181 42.7567 16.317 43.0287 16.419C43.3007 16.521 43.5841 16.572 43.8787 16.572C44.3887 16.572 44.8194 16.4813 45.1707 16.3C45.5221 16.1073 45.8111 15.8467 46.0377 15.518L47.3977 16.606C46.5931 17.694 45.4257 18.238 43.8957 18.238C43.2611 18.238 42.6774 18.1417 42.1447 17.949C41.6121 17.745 41.1474 17.4617 40.7507 17.099C40.3654 16.7363 40.0594 16.2943 39.8327 15.773C39.6174 15.2403 39.5097 14.6397 39.5097 13.971C39.5097 13.3137 39.6174 12.7187 39.8327 12.186C40.0594 11.642 40.3654 11.183 40.7507 10.809C41.1361 10.4237 41.5894 10.129 42.1107 9.925C42.6434 9.70967 43.2157 9.602 43.8277 9.602C44.3944 9.602 44.9157 9.69833 45.3917 9.891C45.8791 10.0723 46.2984 10.35 46.6497 10.724C47.0011 11.0867 47.2731 11.5457 47.4657 12.101C47.6697 12.645 47.7717 13.2853 47.7717 14.022ZM54.7138 16.963H54.6628C54.4588 17.3257 54.1302 17.626 53.6768 17.864C53.2235 18.0907 52.7078 18.204 52.1298 18.204C51.8012 18.204 51.4555 18.1587 51.0928 18.068C50.7415 17.9887 50.4128 17.8527 50.1068 17.66C49.8122 17.456 49.5628 17.1953 49.3588 16.878C49.1662 16.5493 49.0698 16.147 49.0698 15.671C49.0698 15.059 49.2398 14.5717 49.5798 14.209C49.9312 13.8463 50.3788 13.5687 50.9228 13.376C51.4668 13.1833 52.0675 13.0587 52.7248 13.002C53.3935 12.934 54.0452 12.9 54.6798 12.9V12.696C54.6798 12.186 54.4928 11.812 54.1188 11.574C53.7562 11.3247 53.3198 11.2 52.8098 11.2C52.3792 11.2 51.9655 11.2907 51.5688 11.472C51.1722 11.6533 50.8435 11.8743 50.5828 12.135L49.5288 10.894C49.9935 10.4633 50.5262 10.1403 51.1268 9.925C51.7388 9.70967 52.3565 9.602 52.9798 9.602C53.7052 9.602 54.3002 9.704 54.7648 9.908C55.2408 10.112 55.6148 10.3783 55.8868 10.707C56.1588 11.0357 56.3458 11.404 56.4478 11.812C56.5612 12.22 56.6178 12.628 56.6178 13.036V18H54.7138V16.963ZM54.6798 14.277H54.2208C53.8922 14.277 53.5465 14.294 53.1838 14.328C52.8212 14.3507 52.4868 14.413 52.1808 14.515C51.8748 14.6057 51.6198 14.7417 51.4158 14.923C51.2118 15.093 51.1098 15.331 51.1098 15.637C51.1098 15.8297 51.1495 15.994 51.2288 16.13C51.3195 16.2547 51.4328 16.3567 51.5688 16.436C51.7048 16.5153 51.8578 16.572 52.0278 16.606C52.1978 16.64 52.3678 16.657 52.5378 16.657C53.2405 16.657 53.7732 16.47 54.1358 16.096C54.4985 15.722 54.6798 15.212 54.6798 14.566V14.277ZM58.9945 9.84H60.9495V11.2H60.9835C61.2102 10.724 61.5275 10.3387 61.9355 10.044C62.3435 9.74933 62.8195 9.602 63.3635 9.602C63.4428 9.602 63.5278 9.60767 63.6185 9.619C63.7092 9.619 63.7885 9.63033 63.8565 9.653V11.523C63.7205 11.489 63.6015 11.4663 63.4995 11.455C63.4088 11.4437 63.3182 11.438 63.2275 11.438C62.7628 11.438 62.3888 11.523 62.1055 11.693C61.8222 11.863 61.6012 12.067 61.4425 12.305C61.2838 12.543 61.1762 12.7867 61.1195 13.036C61.0628 13.2853 61.0345 13.4837 61.0345 13.631V18H58.9945V9.84ZM70.4641 12.101C70.3054 11.8743 70.0674 11.6873 69.7501 11.54C69.4327 11.3813 69.1097 11.302 68.7811 11.302C68.4071 11.302 68.0784 11.3813 67.7951 11.54C67.5117 11.6873 67.2737 11.8857 67.0811 12.135C66.8997 12.3843 66.7637 12.6677 66.6731 12.985C66.5824 13.291 66.5371 13.6027 66.5371 13.92C66.5371 14.2373 66.5824 14.5547 66.6731 14.872C66.7751 15.178 66.9224 15.4557 67.1151 15.705C67.3077 15.9543 67.5457 16.1583 67.8291 16.317C68.1237 16.4643 68.4637 16.538 68.8491 16.538C69.1664 16.538 69.4837 16.4757 69.8011 16.351C70.1184 16.2263 70.3734 16.045 70.5661 15.807L71.8411 17.099C71.5011 17.4617 71.0647 17.745 70.5321 17.949C70.0107 18.1417 69.4441 18.238 68.8321 18.238C68.2314 18.238 67.6591 18.1417 67.1151 17.949C66.5824 17.7563 66.1121 17.473 65.7041 17.099C65.3074 16.725 64.9901 16.2717 64.7521 15.739C64.5254 15.2063 64.4121 14.6 64.4121 13.92C64.4121 13.2627 64.5254 12.6677 64.7521 12.135C64.9901 11.6023 65.3074 11.149 65.7041 10.775C66.1007 10.401 66.5597 10.112 67.0811 9.908C67.6137 9.704 68.1804 9.602 68.7811 9.602C69.3817 9.602 69.9597 9.71533 70.5151 9.942C71.0817 10.1687 71.5294 10.4803 71.8581 10.877L70.4641 12.101ZM77.7278 9.602C78.2605 9.602 78.7138 9.69833 79.0878 9.891C79.4732 10.0723 79.7848 10.316 80.0228 10.622C80.2722 10.928 80.4535 11.2793 80.5668 11.676C80.6802 12.0727 80.7368 12.4807 80.7368 12.9V18H78.6968V13.512C78.6968 13.274 78.6798 13.0303 78.6458 12.781C78.6118 12.5203 78.5382 12.288 78.4248 12.084C78.3228 11.8687 78.1698 11.693 77.9658 11.557C77.7732 11.421 77.5125 11.353 77.1838 11.353C76.8552 11.353 76.5718 11.4153 76.3338 11.54C76.0958 11.6647 75.8975 11.8347 75.7388 12.05C75.5802 12.254 75.4612 12.4863 75.3818 12.747C75.3025 13.0077 75.2628 13.274 75.2628 13.546V18H73.2228V5.148H75.2628V10.979H75.2968C75.3762 10.809 75.4895 10.6447 75.6368 10.486C75.7955 10.316 75.9768 10.1687 76.1808 10.044C76.3848 9.908 76.6172 9.80033 76.8778 9.721C77.1385 9.64167 77.4218 9.602 77.7278 9.602Z"
     fill="black"
     id="path365" />
</svg>
