<?xml version="1.0" encoding="UTF-8" standalone="no"?>
<svg
   width="72"
   height="24"
   viewBox="0 0 72 24"
   fill="none"
   version="1.1"
   id="svg15"
   sodipodi:docname="sitecore-send.svg"
   inkscape:version="1.1.2 (0a00cf5339, 2022-02-04, custom)"
   xmlns:inkscape="http://www.inkscape.org/namespaces/inkscape"
   xmlns:sodipodi="http://sodipodi.sourceforge.net/DTD/sodipodi-0.dtd"
   xmlns="http://www.w3.org/2000/svg"
   xmlns:svg="http://www.w3.org/2000/svg">
  <defs
     id="defs19" />
  <sodipodi:namedview
     id="namedview17"
     pagecolor="#ffffff"
     bordercolor="#666666"
     borderopacity="1.0"
     inkscape:pageshadow="2"
     inkscape:pageopacity="0.0"
     inkscape:pagecheckerboard="0"
     showgrid="false"
     inkscape:zoom="18.319444"
     inkscape:cx="36"
     inkscape:cy="11.981804"
     inkscape:window-width="1920"
     inkscape:window-height="1111"
     inkscape:window-x="-9"
     inkscape:window-y="-9"
     inkscape:window-maximized="1"
     inkscape:current-layer="svg15" />
  <path
     d="M2.91001 14.1501L18.22 3.31006L7.46001 16.1301L2.96001 14.4901C2.81001 14.4301 2.78001 14.2301 2.91001 14.1401V14.1501Z"
     fill="#F58F8F"
     id="path9" />
  <path
     d="M6.3499 19.8601L20.2199 3.31006V20.4901C20.2199 20.6301 20.0799 20.7301 19.9499 20.6801L13.5599 18.3601L6.5499 20.1901C6.3599 20.2401 6.2199 20.0201 6.3499 19.8701V19.8601Z"
     fill="#EB1F1F"
     id="path11" />
  <path
     d="M36.463 8.48C36.2363 8.18533 35.9133 7.94167 35.494 7.749C35.086 7.545 34.6723 7.443 34.253 7.443C34.0037 7.443 33.7543 7.477 33.505 7.545C33.2557 7.60167 33.029 7.698 32.825 7.834C32.621 7.95867 32.451 8.12867 32.315 8.344C32.1903 8.548 32.128 8.79733 32.128 9.092C32.128 9.364 32.1847 9.59633 32.298 9.789C32.4113 9.98167 32.5643 10.146 32.757 10.282C32.961 10.418 33.2047 10.537 33.488 10.639C33.7713 10.741 34.083 10.843 34.423 10.945C34.8083 11.0697 35.205 11.2113 35.613 11.37C36.0323 11.5287 36.412 11.7383 36.752 11.999C37.1033 12.2597 37.3867 12.5883 37.602 12.985C37.8287 13.3817 37.942 13.8747 37.942 14.464C37.942 15.11 37.823 15.6767 37.585 16.164C37.347 16.64 37.0297 17.0367 36.633 17.354C36.2363 17.6713 35.7717 17.9093 35.239 18.068C34.7063 18.2267 34.1453 18.306 33.556 18.306C32.774 18.306 32.009 18.1643 31.261 17.881C30.513 17.5863 29.901 17.1557 29.425 16.589L30.955 15.161C31.2497 15.569 31.6407 15.892 32.128 16.13C32.6267 16.368 33.114 16.487 33.59 16.487C33.8393 16.487 34.0943 16.4587 34.355 16.402C34.6157 16.334 34.848 16.2263 35.052 16.079C35.2673 15.9317 35.4373 15.7503 35.562 15.535C35.698 15.3083 35.766 15.0307 35.766 14.702C35.766 14.3847 35.6923 14.124 35.545 13.92C35.3977 13.7047 35.1993 13.5233 34.95 13.376C34.7007 13.2173 34.406 13.0813 34.066 12.968C33.726 12.8547 33.369 12.7357 32.995 12.611C32.6323 12.4977 32.2697 12.3617 31.907 12.203C31.5443 12.0443 31.2157 11.8347 30.921 11.574C30.6377 11.3133 30.4053 10.996 30.224 10.622C30.0427 10.2367 29.952 9.76067 29.952 9.194C29.952 8.582 30.0767 8.055 30.326 7.613C30.5867 7.171 30.921 6.80833 31.329 6.525C31.7483 6.23033 32.2187 6.015 32.74 5.879C33.2727 5.73167 33.811 5.658 34.355 5.658C34.967 5.658 35.5847 5.76567 36.208 5.981C36.8427 6.19633 37.3923 6.51933 37.857 6.95L36.463 8.48ZM45.7317 13.104C45.7317 12.8433 45.6921 12.594 45.6127 12.356C45.5447 12.118 45.4314 11.9083 45.2727 11.727C45.1141 11.5457 44.9101 11.404 44.6607 11.302C44.4227 11.1887 44.1394 11.132 43.8107 11.132C43.1987 11.132 42.6774 11.319 42.2467 11.693C41.8274 12.0557 41.5951 12.526 41.5497 13.104H45.7317ZM47.7717 14.022C47.7717 14.1127 47.7717 14.2033 47.7717 14.294C47.7717 14.3847 47.7661 14.4753 47.7547 14.566H41.5497C41.5724 14.8607 41.6461 15.1327 41.7707 15.382C41.9067 15.62 42.0824 15.8297 42.2977 16.011C42.5131 16.181 42.7567 16.317 43.0287 16.419C43.3007 16.521 43.5841 16.572 43.8787 16.572C44.3887 16.572 44.8194 16.4813 45.1707 16.3C45.5221 16.1073 45.8111 15.8467 46.0377 15.518L47.3977 16.606C46.5931 17.694 45.4257 18.238 43.8957 18.238C43.2611 18.238 42.6774 18.1417 42.1447 17.949C41.6121 17.745 41.1474 17.4617 40.7507 17.099C40.3654 16.7363 40.0594 16.2943 39.8327 15.773C39.6174 15.2403 39.5097 14.6397 39.5097 13.971C39.5097 13.3137 39.6174 12.7187 39.8327 12.186C40.0594 11.642 40.3654 11.183 40.7507 10.809C41.1361 10.4237 41.5894 10.129 42.1107 9.925C42.6434 9.70967 43.2157 9.602 43.8277 9.602C44.3944 9.602 44.9157 9.69833 45.3917 9.891C45.8791 10.0723 46.2984 10.35 46.6497 10.724C47.0011 11.0867 47.2731 11.5457 47.4657 12.101C47.6697 12.645 47.7717 13.2853 47.7717 14.022ZM49.7474 9.84H51.6854V11.149H51.7194C51.9008 10.741 52.2124 10.384 52.6544 10.078C53.1078 9.76067 53.6404 9.602 54.2524 9.602C54.7851 9.602 55.2384 9.69833 55.6124 9.891C55.9978 10.0723 56.3094 10.316 56.5474 10.622C56.7968 10.928 56.9781 11.2793 57.0914 11.676C57.2048 12.0727 57.2614 12.4807 57.2614 12.9V18H55.2214V13.478C55.2214 13.24 55.2044 12.9907 55.1704 12.73C55.1364 12.4693 55.0628 12.237 54.9494 12.033C54.8361 11.8177 54.6774 11.642 54.4734 11.506C54.2808 11.37 54.0201 11.302 53.6914 11.302C53.3628 11.302 53.0794 11.37 52.8414 11.506C52.6034 11.6307 52.4051 11.795 52.2464 11.999C52.0991 12.203 51.9858 12.441 51.9064 12.713C51.8271 12.9737 51.7874 13.24 51.7874 13.512V18H49.7474V9.84ZM67.938 18H66V16.776H65.966C65.6826 17.252 65.286 17.6147 64.776 17.864C64.2773 18.1133 63.739 18.238 63.161 18.238C62.5376 18.238 61.9766 18.1247 61.478 17.898C60.9906 17.66 60.5713 17.3483 60.22 16.963C59.88 16.5663 59.6136 16.1073 59.421 15.586C59.2396 15.0533 59.149 14.4867 59.149 13.886C59.149 13.2853 59.2453 12.7243 59.438 12.203C59.6306 11.6817 59.9026 11.2283 60.254 10.843C60.6053 10.4577 61.0246 10.1573 61.512 9.942C61.9993 9.71533 62.532 9.602 63.11 9.602C63.484 9.602 63.8183 9.64733 64.113 9.738C64.4076 9.81733 64.6626 9.91933 64.878 10.044C65.1046 10.1687 65.2973 10.3047 65.456 10.452C65.6146 10.5993 65.745 10.741 65.847 10.877H65.898V5.148H67.938V18ZM61.223 13.886C61.223 14.2033 61.2683 14.5207 61.359 14.838C61.461 15.1553 61.6083 15.4387 61.801 15.688C61.9936 15.9373 62.2373 16.1413 62.532 16.3C62.8266 16.4587 63.1723 16.538 63.569 16.538C63.943 16.538 64.2773 16.4643 64.572 16.317C64.8666 16.1583 65.116 15.9543 65.32 15.705C65.5353 15.4557 65.694 15.178 65.796 14.872C65.9093 14.5547 65.966 14.2373 65.966 13.92C65.966 13.6027 65.9093 13.2853 65.796 12.968C65.694 12.6507 65.5353 12.3673 65.32 12.118C65.116 11.8687 64.8666 11.6647 64.572 11.506C64.2773 11.3473 63.943 11.268 63.569 11.268C63.1723 11.268 62.8266 11.3473 62.532 11.506C62.2373 11.6533 61.9936 11.8517 61.801 12.101C61.6083 12.3503 61.461 12.6337 61.359 12.951C61.2683 13.257 61.223 13.5687 61.223 13.886Z"
     fill="black"
     id="path13" />
</svg>
