<svg version="1.1" viewBox="0 0 24 24" xmlns="http://www.w3.org/2000/svg">
 <path d="m12.75 10.25c0-0.55228 0.4477-1 1-1h6.25c0.5523 0 1 0.44772 1 1v4.75c0 0.5523-0.4477 1-1 1h-5c-1.3807 0-2.5 1.1193-2.5 2.5v3.5c0 0.5523-0.4477 1-1 1h-6.25c-0.55228 0-1-0.4477-1-1v-4.75c0-0.5523 0.44772-1 1-1h5c1.3807 0 2.5-1.1193 2.5-2.5v-0.75z" clip-rule="evenodd" fill="#f47f8c" fill-rule="evenodd"/>
 <path d="m11.5 2c0-0.55228 0.4477-1 1-1h6.25c0.5523 0 1 0.44772 1 1v4.75c0 0.55228-0.4477 1-1 1h-5c-1.3807 0-2.5 1.1193-2.5 2.5v3.5c0 0.5523-0.4477 1-1 1h-6.25c-0.55228 0-1-0.4477-1-1v-4.75c0-0.55228 0.44772-1 1-1h5c1.3807 0 2.5-1.1193 2.5-2.5z" clip-rule="evenodd" fill="#eb001a" fill-rule="evenodd"/>
</svg>
