<?xml version="1.0" encoding="UTF-8" standalone="no"?>
<svg
   width="110"
   height="24"
   viewBox="0 0 110 24"
   fill="none"
   version="1.1"
   id="svg517"
   sodipodi:docname="xm-cloud.svg"
   inkscape:version="1.1.2 (0a00cf5339, 2022-02-04, custom)"
   xmlns:inkscape="http://www.inkscape.org/namespaces/inkscape"
   xmlns:sodipodi="http://sodipodi.sourceforge.net/DTD/sodipodi-0.dtd"
   xmlns="http://www.w3.org/2000/svg"
   xmlns:svg="http://www.w3.org/2000/svg">
  <defs
     id="defs521" />
  <sodipodi:namedview
     id="namedview519"
     pagecolor="#ffffff"
     bordercolor="#666666"
     borderopacity="1.0"
     inkscape:pageshadow="2"
     inkscape:pageopacity="0.0"
     inkscape:pagecheckerboard="0"
     showgrid="false"
     inkscape:zoom="11.381818"
     inkscape:cx="55.04393"
     inkscape:cy="11.992812"
     inkscape:window-width="1920"
     inkscape:window-height="1111"
     inkscape:window-x="-9"
     inkscape:window-y="-9"
     inkscape:window-maximized="1"
     inkscape:current-layer="svg517" />
  <path
     d="M3.08011 18.14L5.65011 20.71C5.75011 20.81 5.88011 20.86 6.00011 20.86C6.12011 20.86 6.26011 20.81 6.35011 20.71C7.91011 19.15 9.95011 18.37 11.9901 18.37C14.0301 18.37 16.0701 19.15 17.6301 20.71C17.7301 20.81 17.8601 20.86 17.9801 20.86C18.1001 20.86 18.2401 20.81 18.3301 20.71L20.9001 18.14C21.2501 17.79 21.2501 17.21 20.9001 16.86L14.8101 10.77C14.0301 9.99001 13.0101 9.60001 11.9801 9.60001C10.9501 9.60001 9.93011 9.99001 9.15011 10.77L3.06011 16.86C2.71011 17.21 2.71011 17.79 3.06011 18.14H3.08011Z"
     fill="#5548D9"
     id="path511" />
  <path
     d="M6.87014 10.94L8.11014 9.70001C9.15014 8.66001 10.5301 8.09001 12.0001 8.09001C13.4701 8.09001 14.8501 8.66001 15.8901 9.70001L17.1301 10.94L21.2101 6.86001C21.4101 6.66001 21.4101 6.35001 21.2101 6.15001L18.3501 3.29001C18.1501 3.09001 17.8401 3.09001 17.6401 3.29001C14.5201 6.41001 9.47014 6.41001 6.36014 3.29001C6.16014 3.09001 5.85014 3.09001 5.65014 3.29001L2.79014 6.15001C2.59014 6.35001 2.59014 6.66001 2.79014 6.86001L6.87014 10.94V10.94Z"
     fill="#AAA4EC"
     id="path513" />
  <path
     d="M33.233 11.574L29.493 5.964H32.077L34.559 10.078L37.007 5.964H39.472L35.8 11.625L40.118 18H37.415L34.474 13.274L31.652 18H29.068L33.233 11.574ZM41.5155 5.964H44.8645L47.9925 14.515H48.0435L51.1375 5.964H54.5035V18H52.3785V8.327H52.3445L48.6895 18H47.1935L43.5895 8.327H43.5555V18H41.5155V5.964ZM70.0911 8.786C69.7738 8.35533 69.3601 8.04367 68.8501 7.851C68.3401 7.647 67.8415 7.545 67.3541 7.545C66.7308 7.545 66.1641 7.65833 65.6541 7.885C65.1441 8.11167 64.7021 8.42333 64.3281 8.82C63.9655 9.21667 63.6821 9.68133 63.4781 10.214C63.2855 10.7467 63.1891 11.3247 63.1891 11.948C63.1891 12.6053 63.2855 13.206 63.4781 13.75C63.6708 14.294 63.9428 14.7643 64.2941 15.161C64.6568 15.5463 65.0875 15.8467 65.5861 16.062C66.0848 16.2773 66.6458 16.385 67.2691 16.385C67.9151 16.385 68.4875 16.2603 68.9861 16.011C69.4848 15.7503 69.8871 15.4103 70.1931 14.991L71.9101 16.198C71.3775 16.8667 70.7258 17.388 69.9551 17.762C69.1845 18.1247 68.2835 18.306 67.2521 18.306C66.3115 18.306 65.4445 18.153 64.6511 17.847C63.8691 17.5297 63.1948 17.0933 62.6281 16.538C62.0615 15.9713 61.6195 15.3027 61.3021 14.532C60.9848 13.75 60.8261 12.8887 60.8261 11.948C60.8261 10.9847 60.9905 10.1177 61.3191 9.347C61.6591 8.565 62.1181 7.902 62.6961 7.358C63.2855 6.814 63.9768 6.39467 64.7701 6.1C65.5635 5.80533 66.4248 5.658 67.3541 5.658C67.7395 5.658 68.1418 5.69767 68.5611 5.777C68.9805 5.845 69.3828 5.95833 69.7681 6.117C70.1535 6.26433 70.5161 6.45133 70.8561 6.678C71.1961 6.90467 71.4851 7.17667 71.7231 7.494L70.0911 8.786ZM73.173 5.148H75.213V18H73.173V5.148ZM77.2119 13.886C77.2119 13.24 77.3252 12.6563 77.5519 12.135C77.7899 11.6023 78.1072 11.149 78.5039 10.775C78.9005 10.401 79.3709 10.112 79.9149 9.908C80.4589 9.704 81.0369 9.602 81.6489 9.602C82.2609 9.602 82.8389 9.704 83.3829 9.908C83.9269 10.112 84.3972 10.401 84.7939 10.775C85.1905 11.149 85.5022 11.6023 85.7289 12.135C85.9669 12.6563 86.0859 13.24 86.0859 13.886C86.0859 14.532 85.9669 15.1213 85.7289 15.654C85.5022 16.1867 85.1905 16.6457 84.7939 17.031C84.3972 17.405 83.9269 17.6997 83.3829 17.915C82.8389 18.1303 82.2609 18.238 81.6489 18.238C81.0369 18.238 80.4589 18.1303 79.9149 17.915C79.3709 17.6997 78.9005 17.405 78.5039 17.031C78.1072 16.6457 77.7899 16.1867 77.5519 15.654C77.3252 15.1213 77.2119 14.532 77.2119 13.886ZM79.2859 13.886C79.2859 14.2033 79.3312 14.5207 79.4219 14.838C79.5239 15.1553 79.6712 15.4387 79.8639 15.688C80.0565 15.9373 80.3002 16.1413 80.5949 16.3C80.8895 16.4587 81.2409 16.538 81.6489 16.538C82.0569 16.538 82.4082 16.4587 82.7029 16.3C82.9975 16.1413 83.2412 15.9373 83.4339 15.688C83.6265 15.4387 83.7682 15.1553 83.8589 14.838C83.9609 14.5207 84.0119 14.2033 84.0119 13.886C84.0119 13.5687 83.9609 13.257 83.8589 12.951C83.7682 12.6337 83.6265 12.3503 83.4339 12.101C83.2412 11.8517 82.9975 11.6533 82.7029 11.506C82.4082 11.3473 82.0569 11.268 81.6489 11.268C81.2409 11.268 80.8895 11.3473 80.5949 11.506C80.3002 11.6533 80.0565 11.8517 79.8639 12.101C79.6712 12.3503 79.5239 12.6337 79.4219 12.951C79.3312 13.257 79.2859 13.5687 79.2859 13.886ZM95.5098 18H93.5718V16.691H93.5378C93.3565 17.099 93.0392 17.4617 92.5858 17.779C92.1438 18.085 91.6168 18.238 91.0048 18.238C90.4722 18.238 90.0132 18.1473 89.6278 17.966C89.2538 17.7733 88.9422 17.524 88.6928 17.218C88.4548 16.912 88.2792 16.5607 88.1658 16.164C88.0525 15.7673 87.9958 15.3593 87.9958 14.94V9.84H90.0358V14.362C90.0358 14.6 90.0528 14.8493 90.0868 15.11C90.1208 15.3707 90.1945 15.6087 90.3078 15.824C90.4212 16.028 90.5742 16.198 90.7668 16.334C90.9708 16.47 91.2372 16.538 91.5658 16.538C91.8832 16.538 92.1608 16.4757 92.3988 16.351C92.6482 16.215 92.8465 16.045 92.9938 15.841C93.1525 15.637 93.2715 15.4047 93.3508 15.144C93.4302 14.872 93.4698 14.6 93.4698 14.328V9.84H95.5098V18ZM106.254 18H104.316V16.776H104.282C103.999 17.252 103.602 17.6147 103.092 17.864C102.594 18.1133 102.055 18.238 101.477 18.238C100.854 18.238 100.293 18.1247 99.7944 17.898C99.307 17.66 98.8877 17.3483 98.5364 16.963C98.1964 16.5663 97.93 16.1073 97.7374 15.586C97.556 15.0533 97.4654 14.4867 97.4654 13.886C97.4654 13.2853 97.5617 12.7243 97.7544 12.203C97.947 11.6817 98.219 11.2283 98.5704 10.843C98.9217 10.4577 99.341 10.1573 99.8284 9.942C100.316 9.71533 100.848 9.602 101.426 9.602C101.8 9.602 102.135 9.64733 102.429 9.738C102.724 9.81733 102.979 9.91933 103.194 10.044C103.421 10.1687 103.614 10.3047 103.772 10.452C103.931 10.5993 104.061 10.741 104.163 10.877H104.214V5.148H106.254V18ZM99.5394 13.886C99.5394 14.2033 99.5847 14.5207 99.6754 14.838C99.7774 15.1553 99.9247 15.4387 100.117 15.688C100.31 15.9373 100.554 16.1413 100.848 16.3C101.143 16.4587 101.489 16.538 101.885 16.538C102.259 16.538 102.594 16.4643 102.888 16.317C103.183 16.1583 103.432 15.9543 103.636 15.705C103.852 15.4557 104.01 15.178 104.112 14.872C104.226 14.5547 104.282 14.2373 104.282 13.92C104.282 13.6027 104.226 13.2853 104.112 12.968C104.01 12.6507 103.852 12.3673 103.636 12.118C103.432 11.8687 103.183 11.6647 102.888 11.506C102.594 11.3473 102.259 11.268 101.885 11.268C101.489 11.268 101.143 11.3473 100.848 11.506C100.554 11.6533 100.31 11.8517 100.117 12.101C99.9247 12.3503 99.7774 12.6337 99.6754 12.951C99.5847 13.257 99.5394 13.5687 99.5394 13.886Z"
     fill="black"
     id="path515" />
</svg>
