<?xml version="1.0" encoding="UTF-8" standalone="no"?>
<svg
   id="Layer_1"
   data-name="Layer 1"
   viewBox="0 0 95652.988 52120.891"
   version="1.1"
   sodipodi:docname="xp-icon-light[3].svg"
   inkscape:export-filename="xp-icon-light[3].png"
   inkscape:export-xdpi="26.911957"
   inkscape:export-ydpi="26.911957"
   width="95652.992"
   height="52120.891"
   xmlns:inkscape="http://www.inkscape.org/namespaces/inkscape"
   xmlns:sodipodi="http://sodipodi.sourceforge.net/DTD/sodipodi-0.dtd"
   xmlns="http://www.w3.org/2000/svg"
   xmlns:svg="http://www.w3.org/2000/svg">
  <defs
     id="defs1" />
  <sodipodi:namedview
     id="namedview1"
     pagecolor="#ffffff"
     bordercolor="#000000"
     borderopacity="0.25"
     inkscape:showpageshadow="2"
     inkscape:pageopacity="0.0"
     inkscape:pagecheckerboard="0"
     inkscape:deskcolor="#d1d1d1"
     showgrid="false" />
  <path
     d="M 301.47305,37.074388 C 296.59484,28.293604 290.741,20.488521 281.96023,15.610278 274.1551,9.7564473 264.39869,5.8538684 253.66663,3.9025789 242.93459,0.97566334 231.22689,0 218.54356,0 H 134.63845 V 58.538461 L 176.591,114.14997 v 0 l -41.95256,55.61151 v 58.53846 h 55.61154 v -86.83206 h 27.31795 c 11.70769,0 23.41539,-0.97563 34.14743,-3.90258 10.73205,-2.92694 20.48846,-6.82946 29.26923,-12.68336 8.78078,-5.85383 14.63462,-12.68336 20.48846,-22.43977 4.8782,-8.780788 7.8051,-20.488451 7.8051,-34.14744 -0.97563,-11.707513 -2.9269,-22.43955 -7.8051,-31.220342 z m -51.70897,46.830798 c -1.95129,3.902579 -4.87821,6.829458 -8.7808,8.780784 -3.90257,1.951253 -7.80512,3.902579 -12.68333,4.878205 -4.8782,0.975627 -9.75641,0.975627 -14.63461,0.975627 H 190.24993 V 44.879546 h 24.39103 c 4.8782,0 9.75641,0 14.63461,0.975626 4.87821,0.975626 8.78078,1.951252 12.68333,3.902579 3.90259,1.951252 6.82949,4.878205 8.78079,7.805158 1.95129,3.902579 2.92692,7.805158 2.92692,13.658989 0,5.853831 -1.95125,8.78071 -3.90253,12.683288 z"
     style="fill:#eb1f1f"
     id="path1" />
  <polygon
     points="0,3.72178e-05 86.832023,114.15004 86.832023,114.15004 0,228.3 73.173076,228.3 159.02948,114.15004 73.173076,3.72178e-05 "
     style="fill:#f5908f"
     id="polygon1" />
</svg>
