<svg width="24" height="24" viewBox="0 0 24 24" fill="none" xmlns="http://www.w3.org/2000/svg">
<g clip-path="url(#clip0_7050_696)">
<path d="M21.4871 7.27351C21.188 6.73504 20.829 6.25641 20.2905 5.95727C19.8119 5.59829 19.2136 5.35898 18.5555 5.23932C17.8974 5.05983 17.1794 5 16.4016 5H11.2563V8.58974L13.829 12L11.2563 15.4103V19H14.6666V13.6752H16.3418C17.0598 13.6752 17.7777 13.6154 18.4358 13.4359C19.094 13.2564 19.6922 13.0171 20.2307 12.6581C20.7692 12.2991 21.1281 11.8803 21.4871 11.282C21.7863 10.7436 21.9657 10.0256 21.9657 9.18803C21.9059 8.47009 21.7863 7.81197 21.4871 7.27351ZM18.3162 10.1453C18.1965 10.3846 18.017 10.5641 17.7777 10.6838C17.5384 10.8034 17.2991 10.9231 16.9999 10.9829C16.7008 11.0427 16.4016 11.0427 16.1025 11.0427H14.6666V7.75214H16.1623C16.4615 7.75214 16.7606 7.75214 17.0598 7.81197C17.3589 7.8718 17.5982 7.93163 17.8375 8.05129C18.0769 8.17094 18.2563 8.35043 18.376 8.52992C18.4957 8.76924 18.5555 9.00855 18.5555 9.36753C18.5555 9.7265 18.4358 9.90599 18.3162 10.1453Z" fill="#EB001A"/>
<path d="M12.7521 12L7.48718 5H3L8.32478 12L3 19H7.48718L12.7521 12Z" fill="#F47F8C"/>
</g>
<defs>
<clipPath id="clip0_7050_696">
<rect width="18.9658" height="14" fill="white" transform="translate(3 5)"/>
</clipPath>
</defs>
</svg>
