<?xml version="1.0" encoding="UTF-8"?>
<svg id="Layer_1" data-name="Layer 1" xmlns="http://www.w3.org/2000/svg" xmlns:xlink="http://www.w3.org/1999/xlink" viewBox="0 0 270 270">
  <defs>
    <style>
      .cls-1 {
        fill: url(#AI_logo_gradient);
      }
    </style>
    <linearGradient id="AI_logo_gradient" data-name="AI logo gradient" x1="33.98" y1="33.84" x2="236.02" y2="235.87" gradientUnits="userSpaceOnUse">
      <stop offset=".22" stop-color="#ff1f38"/>
      <stop offset=".67" stop-color="#8629ff"/>
      <stop offset="1" stop-color="#4300ad"/>
    </linearGradient>
  </defs>
  <path class="cls-1" d="M128.06,162.01c0,11.29-9.15,20.43-20.45,20.43s-20.45-9.15-20.45-20.43,9.15-20.43,20.45-20.43,20.45,9.15,20.45,20.43ZM162.42,141.57c-11.29,0-20.45,9.15-20.45,20.43s9.15,20.43,20.45,20.43,20.45-9.15,20.45-20.43-9.15-20.43-20.45-20.43ZM212.55,145.21c-9.28,0-16.81,7.52-16.81,16.8s7.52,16.8,16.81,16.8,16.81-7.52,16.81-16.8-7.52-16.8-16.81-16.8ZM212.55,198.51c-7.47,0-13.53,6.05-13.53,13.52s6.06,13.52,13.53,13.52,13.53-6.05,13.53-13.52-6.06-13.52-13.53-13.52ZM212.55,44.15c-7.47,0-13.53,6.05-13.53,13.52s6.06,13.52,13.53,13.52,13.53-6.05,13.53-13.52-6.06-13.52-13.53-13.52ZM203.92,10.15c-4.88,0-8.84,3.96-8.84,8.84s3.96,8.84,8.84,8.84,8.84-3.96,8.84-8.84-3.96-8.84-8.84-8.84ZM252.03,53.52c-4.88,0-8.84,3.96-8.84,8.84s3.96,8.84,8.84,8.84,8.84-3.96,8.84-8.84-3.96-8.84-8.84-8.84ZM252.03,198.51c-4.88,0-8.84,3.96-8.84,8.84s3.96,8.84,8.84,8.84,8.84-3.96,8.84-8.84-3.96-8.84-8.84-8.84ZM203.92,242.35c-4.88,0-8.84,3.96-8.84,8.84s3.96,8.84,8.84,8.84,8.84-3.96,8.84-8.84-3.96-8.84-8.84-8.84ZM107.61,87.3c-11.29,0-20.45,9.15-20.45,20.43s9.15,20.43,20.45,20.43,20.45-9.15,20.45-20.43-9.15-20.43-20.45-20.43ZM162.47,87.3c-11.29,0-20.45,9.15-20.45,20.43s9.15,20.43,20.45,20.43,20.45-9.15,20.45-20.43-9.15-20.43-20.45-20.43ZM212.55,90.49c-9.52,0-17.25,7.72-17.25,17.24s7.72,17.24,17.25,17.24,17.25-7.72,17.25-17.24-7.72-17.24-17.25-17.24ZM258.36,96.09c-6.43,0-11.64,5.21-11.64,11.64s5.21,11.64,11.64,11.64,11.64-5.21,11.64-11.64-5.21-11.64-11.64-11.64ZM258.36,150.37c-6.43,0-11.64,5.21-11.64,11.64s5.21,11.64,11.64,11.64,11.64-5.21,11.64-11.64-5.21-11.64-11.64-11.64ZM40.64,162.01c0,9.28,7.52,16.8,16.81,16.8,9.28,0,16.81-7.52,16.81-16.8,0-9.28-7.52-16.8-16.81-16.8-9.28,0-16.81,7.52-16.81,16.8ZM43.91,212.03c0,7.47,6.06,13.52,13.53,13.52,7.47,0,13.53-6.05,13.53-13.52,0-7.47-6.06-13.52-13.53-13.52s-13.53,6.05-13.53,13.52ZM43.91,57.67c0,7.47,6.06,13.52,13.53,13.52s13.53-6.05,13.53-13.52c0-7.47-6.06-13.52-13.53-13.52s-13.53,6.05-13.53,13.52ZM57.23,18.99c0,4.88,3.96,8.84,8.84,8.84s8.84-3.96,8.84-8.84-3.96-8.84-8.84-8.84-8.84,3.96-8.84,8.84ZM9.12,62.36c0,4.88,3.96,8.84,8.84,8.84s8.84-3.96,8.84-8.84-3.96-8.84-8.84-8.84c-4.88,0-8.84,3.96-8.84,8.84ZM9.12,207.35c0,4.88,3.96,8.84,8.84,8.84s8.84-3.96,8.84-8.84c0-4.88-3.96-8.84-8.84-8.84s-8.84,3.96-8.84,8.84ZM57.23,251.19c0,4.88,3.96,8.84,8.84,8.84s8.84-3.96,8.84-8.84-3.96-8.84-8.84-8.84-8.84,3.96-8.84,8.84ZM40.2,107.73c0,9.52,7.72,17.24,17.25,17.24,9.52,0,17.25-7.72,17.25-17.24,0-9.52-7.72-17.24-17.25-17.24-9.52,0-17.25,7.72-17.25,17.24ZM0,107.73c0,6.43,5.21,11.64,11.64,11.64,6.43,0,11.64-5.21,11.64-11.64s-5.21-11.64-11.64-11.64C5.21,96.09,0,101.3,0,107.73ZM0,162.01c0,6.43,5.21,11.64,11.64,11.64,6.43,0,11.64-5.21,11.64-11.64,0-6.43-5.21-11.64-11.64-11.64S0,155.58,0,162.01ZM107.61,40.48c-9.5,0-17.2,7.7-17.2,17.19s7.7,17.19,17.2,17.19,17.2-7.7,17.2-17.19-7.7-17.19-17.2-17.19ZM162.42,40.48c-9.5,0-17.2,7.7-17.2,17.19s7.7,17.19,17.2,17.19,17.2-7.7,17.2-17.19-7.7-17.19-17.2-17.19ZM107.61,194.86c-9.5,0-17.2,7.7-17.2,17.19s7.7,17.19,17.2,17.19,17.2-7.7,17.2-17.19-7.7-17.19-17.2-17.19ZM107.61,0c-6.58,0-11.91,5.33-11.91,11.9s5.33,11.9,11.91,11.9,11.91-5.33,11.91-11.9S114.19,0,107.61,0ZM162.42,0c-6.58,0-11.91,5.33-11.91,11.9s5.33,11.9,11.91,11.9,11.91-5.33,11.91-11.9-5.33-11.9-11.91-11.9ZM107.61,246.2c-6.58,0-11.91,5.33-11.91,11.9s5.33,11.9,11.91,11.9,11.91-5.33,11.91-11.9-5.33-11.9-11.91-11.9ZM162.45,194.86c-9.5,0-17.2,7.7-17.2,17.19s7.7,17.19,17.2,17.19,17.2-7.7,17.2-17.19-7.7-17.19-17.2-17.19ZM162.45,246.2c-6.58,0-11.91,5.33-11.91,11.9s5.33,11.9,11.91,11.9,11.91-5.33,11.91-11.9-5.33-11.9-11.91-11.9Z"/>
</svg>