<svg width="24" height="24" viewBox="0 0 24 24" fill="none" xmlns="http://www.w3.org/2000/svg">
<path d="M12 6.01007V2.51007C12 2.22007 11.76 1.99007 11.48 2.00007C6.2 2.27007 2 6.64007 2 11.9901C2 15.4801 3.79 18.5501 6.5 20.3401V11.9901C6.5 9.11007 8.71 6.75007 11.52 6.51007C11.79 6.49007 12 6.28007 12 6.01007Z" fill="#F47F8C"/>
<path d="M17.48 12.4601C17.24 15.2701 14.88 17.4801 12 17.4801V16.4501C12 16.1901 12.21 15.9901 12.46 15.9601C14.75 15.7001 16.45 13.5001 15.89 11.0401C15.56 9.59005 14.39 8.42005 12.94 8.09005C10.32 7.49005 8 9.47005 8 11.9801V20.8001C8 21.0101 8.12 21.2001 8.31 21.2701C9.45 21.7201 10.69 21.9801 12 21.9801C17.35 21.9801 21.72 17.7801 21.99 12.5001C22 12.2201 21.77 11.9801 21.49 11.9801H18.25C17.71 11.9801 17.51 12.1901 17.48 12.4601Z" fill="#EB001A"/>
</svg>
